<svg xmlns="http://www.w3.org/2000/svg" viewBox="0 0 24 24" fill="white">
  <path d="M17.963 13.768c-.284-.152-.563-.165-.844.065-.202.164-.383.34-.586.494-.584.448-1.235.618-1.96.41-.39-.113-.605-.416-.59-.827.014-.34.026-.68.026-1.02V8.29c0-.61-.11-1.186-.52-1.684-.62-.752-1.438-1.024-2.395-.943-.93.08-1.714.453-2.353 1.13-.084.088-.087.15-.004.24l1.023 1.073c.088.092.15.08.24-.008.39-.386.85-.62 1.413-.62.505 0 .843.206.943.717.058.293.064.594.058.895 0 .07-.03.09-.097.1-.52.06-1.048.1-1.562.2-.47.092-.93.22-1.35.447-.87.468-1.27 1.204-1.2 2.168.047.646.293 1.196.82 1.597.544.413 1.167.52 1.83.394.638-.12 1.17-.436 1.636-.866.017-.015.036-.028.075-.058.196.35.46.586.83.71l.012.002c.437.14.832.073 1.202-.152.16-.097.3-.222.446-.333.16-.122.16-.125.285.015l.828.87c.134.14.134.14.292.015.568-.453.9-1.038 1.03-1.727.032-.17.017-.28-.168-.38zM14.33 12.98c-.08.32-.278.554-.52.752-.312.256-.67.37-1.08.3-.27-.044-.467-.21-.518-.483-.06-.326.05-.602.337-.77.39-.226.847-.28 1.29-.317.15-.013.3-.028.46-.025.05 0 .062.026.058.07-.004.158-.01.316-.028.474z"/>
  <path d="M21.408 19.57c-.1.086-.187.2-.3.248-1.316.565-2.68.974-4.108 1.176-1.92.27-3.832.2-5.716-.257-1.592-.387-3.07-1.042-4.432-1.96-.082-.054-.173-.1-.252-.16-.052-.04-.08-.027-.098.037-.016.056.006.086.046.116.236.18.466.37.712.54 1.218.84 2.527 1.486 3.935 1.917 1.618.493 3.274.65 4.96.467 1.44-.158 2.826-.533 4.133-1.135.234-.107.455-.24.683-.363.168-.09.336-.073.474.053.04.037.03.05-.037.1z"/>
  <path d="M22.462 18.758c-.088-.273-.34-.39-.597-.356-.076.01-.15.03-.224.05-1.01.24-1.09.22-1.382-.73-.017-.053-.03-.11-.058-.16-.06-.114-.15-.158-.27-.112-.104.04-.133.13-.112.234.085.42.03.832-.056 1.242-.05.243-.064.486.05.716.074.15.19.227.35.232.2.006.392-.04.577-.12.297-.13.572-.3.87-.413.284-.107.46-.037.54.268.006.022.015.044.024.065.06.143.155.193.293.143.078-.028.136-.08.12-.184-.038-.278-.07-.558-.126-.834z"/>
</svg>
