<svg xmlns="http://www.w3.org/2000/svg" viewBox="0 0 24 24" fill="white">
  <path d="M23.997 6.124a9.23 9.23 0 00-.24-2.19 4.71 4.71 0 00-.87-1.763 4.71 4.71 0 00-1.763-.87A9.23 9.23 0 0018.934.06C18.14.03 17.862.02 15.997.02h-8c-1.866 0-2.144.01-2.937.04a9.23 9.23 0 00-2.19.24 4.71 4.71 0 00-1.763.87 4.71 4.71 0 00-.87 1.763 9.23 9.23 0 00-.24 2.19C.007 6.918-.003 7.196-.003 9.061v5.877c0 1.866.01 2.144.04 2.937a9.23 9.23 0 00.24 2.19 4.71 4.71 0 00.87 1.763 4.71 4.71 0 001.763.87 9.23 9.23 0 002.19.24c.793.03 1.071.04 2.937.04h8c1.866 0 2.144-.01 2.937-.04a9.23 9.23 0 002.19-.24 4.93 4.93 0 002.633-2.633 9.23 9.23 0 00.24-2.19c.03-.793.04-1.071.04-2.937V9.061c-.01-1.865-.02-2.143-.05-2.937zm-7.497 9.53a.48.48 0 01-.54.48l-3.56.44a.48.48 0 01-.54-.48v-3.37a.46.46 0 01.4-.47l2.64-.33V8.32l-3.04.38v5.08a.48.48 0 01-.54.48l-1.42.18a1.22 1.22 0 01-1.39-1.17 1.22 1.22 0 011.05-1.27l1.22-.15V7.19a.48.48 0 01.4-.47l4.08-.51a.48.48 0 01.54.48v8.96z"/>
</svg>
