<svg xmlns="http://www.w3.org/2000/svg" viewBox="0 0 24 24" fill="white">
  <path d="M1.175 12.225c-.051 0-.094.046-.101.1l-.233 2.154.233 2.105c.007.058.05.098.101.098.05 0 .09-.04.099-.098l.255-2.105-.27-2.154c-.009-.057-.05-.1-.1-.1m-.899.828c-.06 0-.091.037-.104.094L0 14.479l.172 1.308c.013.06.045.094.104.094.057 0 .09-.037.104-.094l.2-1.308-.2-1.332c-.014-.06-.047-.094-.104-.094m1.8-.621c-.064 0-.107.048-.112.112l-.213 2.455.213 2.31c.005.068.048.108.112.108.062 0 .107-.04.112-.108l.241-2.31-.241-2.455c-.005-.068-.05-.112-.112-.112m.899-.171c-.073 0-.12.05-.124.12l-.192 2.626.192 2.394c.004.074.051.12.124.12.071 0 .12-.046.124-.12l.217-2.394-.217-2.626c-.004-.074-.053-.12-.124-.12m.931-.326c-.082 0-.133.055-.137.133l-.172 2.952.172 2.453c.004.082.055.133.137.133.08 0 .133-.05.137-.133l.194-2.453-.194-2.952c-.004-.082-.057-.133-.137-.133m.934-.142c-.088 0-.143.059-.147.143l-.152 3.094.152 2.494c.004.088.059.143.147.143.086 0 .143-.055.147-.143l.17-2.494-.17-3.094c-.004-.088-.061-.143-.147-.143m.954.014c-.1 0-.157.062-.16.156l-.13 2.924.13 2.514c.003.098.06.156.16.156.096 0 .157-.058.16-.156l.148-2.514-.149-2.924c-.003-.098-.064-.156-.16-.156m.956-.282c-.106 0-.166.066-.17.17l-.112 3.206.112 2.528c.004.106.064.17.17.17.104 0 .166-.064.17-.17l.127-2.528-.127-3.206c-.004-.108-.066-.17-.17-.17m2.836-1.655c-.036 0-.07.008-.104.02a.18.18 0 00-.076.056c-.02.024-.035.05-.045.08s-.015.062-.015.096l-.088 4.986.088 2.49a.19.19 0 00.06.136.189.189 0 00.27 0 .192.192 0 00.06-.136l.1-2.49-.1-4.986a.192.192 0 00-.06-.136.192.192 0 00-.09-.116m-.965.467c-.116 0-.18.07-.184.176l-.092 4.496.092 2.536c.004.11.068.176.184.176.114 0 .18-.066.184-.176l.104-2.536-.104-4.496c-.004-.11-.07-.176-.184-.176m3.783.405c-.02-.124-.1-.192-.21-.192-.112 0-.192.068-.21.192l-.074 4.574.074 2.456c.018.128.098.192.21.192.11 0 .19-.064.21-.192l.084-2.456-.084-4.574m.96-.383c-.228 0-.21.187-.21.187l-.06 4.77.06 2.428s-.018.19.21.19c.222 0 .21-.19.21-.19l.068-2.428-.068-4.77s.012-.187-.21-.187m4.907-.87c-.248 0-.45.1-.607.248a3.763 3.763 0 00-2.065-.61c-.2 0-.395.02-.582.06-.08.02-.1.04-.1.12v8.36c0 .08.06.14.14.15h3.214c1.2 0 2.175-.975 2.175-2.175 0-1.2-.974-2.175-2.175-2.175"/>
</svg>
