<svg xmlns="http://www.w3.org/2000/svg" viewBox="0 0 24 24" fill="white">
  <path d="M12 0C5.4 0 0 5.4 0 12s5.4 12 12 12 12-5.4 12-12S18.66 0 12 0zm5.521 17.34a.75.75 0 01-1.03.25c-2.82-1.724-6.37-2.114-10.554-1.158a.75.75 0 11-.334-1.462c4.576-1.046 8.507-.596 11.668 1.34a.75.75 0 01.25 1.03zm1.472-3.27a.938.938 0 01-1.287.308c-3.228-1.984-8.147-2.56-11.964-1.4a.937.937 0 11-.544-1.794c4.36-1.324 9.776-.682 13.487 1.598a.938.938 0 01.308 1.287zm.127-3.403C15.235 8.428 8.853 8.214 5.157 9.34a1.125 1.125 0 11-.652-2.153c4.244-1.293 11.3-1.044 15.755 1.613a1.125 1.125 0 01-1.14 1.94z"/>
</svg>
