<?xml version="1.0" encoding="UTF-8"?>
<svg id="Layer_2" data-name="Layer 2" xmlns="http://www.w3.org/2000/svg" viewBox="0 0 2113.07 423">
  <defs>
    <style>
      .cls-1 {
        fill: #f16123;
      }

      .cls-2 {
        fill: #010101;
      }

      .cls-3 {
        letter-spacing: -.02em;
      }

      .cls-4 {
        letter-spacing: -.03em;
      }

      .cls-5 {
        letter-spacing: 0em;
      }

      .cls-6 {
        letter-spacing: 0em;
      }

      .cls-7 {
        fill: #231f20;
        font-family: SuisseIntl-Book, 'Suisse Intl';
        font-size: 300px;
      }

      .cls-8 {
        stroke-width: 8.3px;
      }

      .cls-8, .cls-9, .cls-10 {
        fill: none;
        stroke: #231f20;
        stroke-miterlimit: 10;
      }

      .cls-9 {
        stroke-width: 7.39px;
      }

      .cls-10 {
        stroke-width: 7.54px;
      }
    </style>
  </defs>
  <g id="Layer_1-2" data-name="Layer 1">
    <text class="cls-7" transform="translate(244.1 277.2)"><tspan x="0" y="0">Mi</tspan><tspan class="cls-6" x="346.19" y="0">x</tspan><tspan class="cls-4" x="503.7" y="0"> </tspan><tspan x="564.6" y="0">A</tspan><tspan class="cls-3" x="771.59" y="0">r</tspan><tspan x="879.29" y="0">chi</tspan><tspan class="cls-5" x="1308.28" y="0">t</tspan><tspan x="1410.88" y="0">ect</tspan></text>
    <g>
      <g>
        <polygon class="cls-2" points="162.05 75.13 153.1 75.13 153.1 205.7 146.38 205.7 146.38 240.46 153.1 240.46 153.1 295.27 162.05 295.27 162.05 240.46 168.77 240.46 168.77 205.7 162.05 205.7 162.05 75.13"/>
        <polygon class="cls-2" points="92.65 75.13 84.26 75.13 84.26 188.32 77.54 188.32 77.54 223.08 84.26 223.08 84.26 295.27 92.65 295.27 92.65 223.08 99.37 223.08 99.37 188.32 92.65 188.32 92.65 75.13"/>
        <polygon class="cls-2" points="23.81 75.13 14.85 75.13 14.85 139.3 8.14 139.3 8.14 174.06 14.85 174.06 14.85 295.27 23.81 295.27 23.81 174.06 30.52 174.06 30.52 139.3 23.81 139.3 23.81 75.13"/>
      </g>
      <line class="cls-9" x1="17.45" y1="77.4" x2="155.48" y2="3.26"/>
      <line class="cls-8" x1="157.68" y1="75.19" x2="157.68" y2=".33"/>
    </g>
    <rect class="cls-2" y="129.88" width="38.19" height="53.77"/>
    <rect class="cls-2" x="69.03" y="177.02" width="38.19" height="53.77"/>
    <rect class="cls-1" x="138.58" y="196.5" width="38.19" height="53.77"/>
    <line class="cls-10" x1="88.41" y1="75.75" x2="88.41" y2="38.32"/>
  </g>
</svg>