<?xml version="1.0" encoding="UTF-8"?>
<svg id="Layer_2" data-name="Layer 2" xmlns="http://www.w3.org/2000/svg" viewBox="0 0 3273 570.18">
  <defs>
    <style>
      .cls-1 {
        letter-spacing: 0em;
      }

      .cls-2 {
        fill-rule: evenodd;
      }

      .cls-2, .cls-3 {
        fill: #ec6930;
      }

      .cls-4 {
        fill: #fff;
      }

      .cls-5 {
        letter-spacing: 0em;
      }

      .cls-6 {
        letter-spacing: -.02em;
      }

      .cls-7 {
        fill: #fff;
        font-family: Gibson-SemiBold, Gibson;
        font-size: 445.21px;
        font-weight: 600;
      }

      .cls-8 {
        letter-spacing: .01em;
      }

      .cls-9 {
        letter-spacing: 0em;
      }
    </style>
  </defs>
  <g id="Layer_1-2" data-name="Layer 1">
    <g>
      <g>
        <path class="cls-2" d="M288.38,297.56V63.33l106.25-22.48v494.56l-84.08-17.97v-219.88h-22.17ZM84.08,503.81l310.55,66.36H0V0h394.63L106.25,61.63v235.93h-22.17v206.25h0ZM250.44,71.66v225.9h-22.17v202.29l-61.92-13.23v-189.06h-22.17V94.37l106.25-22.71h0Z"/>
        <rect class="cls-4" x="79.77" y="147.44" width="90.35" height="198.78"/>
        <rect class="cls-3" x="69.73" y="335.32" width="37.36" height="177.41"/>
        <polygon class="cls-2" points="166.36 486.63 140.18 478.68 140.18 335.24 174.06 335.24 166.36 486.63"/>
        <polygon class="cls-2" points="310.55 517.44 228.19 499.77 228.19 478.6 313.74 478.6 310.55 517.44"/>
        <rect class="cls-4" x="251.14" y="461.16" width="37.06" height="58.86"/>
      </g>
      <rect class="cls-4" x="224.32" y="297.76" width="90.35" height="183.18"/>
    </g>
    <text class="cls-7" transform="translate(546.55 442.75)"><tspan x="0" y="0">Mix</tspan><tspan class="cls-6" x="765.75" y="0"> </tspan><tspan class="cls-1" x="844.12" y="0">Archi</tspan><tspan class="cls-9" x="1923.3" y="0">t</tspan><tspan class="cls-8" x="2086.24" y="0">ec</tspan><tspan class="cls-5" x="2567.95" y="0">t</tspan></text>
  </g>
</svg>
