<?xml version="1.0" encoding="UTF-8"?>
<svg id="Layer_2" data-name="Layer 2" xmlns="http://www.w3.org/2000/svg" viewBox="0 0 4223.91 570.18">
  <defs>
    <style>
      .cls-1 {
        fill: #231f20;
      }

      .cls-2 {
        fill-rule: evenodd;
      }

      .cls-2, .cls-3 {
        fill: #ec6930;
      }

      .cls-4 {
        fill: #fff;
      }
    </style>
  </defs>
  <g id="Layer_1-2" data-name="Layer 1">
    <g>
      <path class="cls-1" d="M796.16,297.02v-109.86h-3.98l-73.07,178.46-73.07-178.46h-3.98v283.84h-38.28V124.03h53.69l61.14,153.11h2.98l61.14-153.11h51.7v346.98h-38.28v-173.98Z"/>
      <path class="cls-1" d="M920.93,436.71h92.46v-187.9h-92.46v-34.3h132.23v222.2h86.5v34.3h-218.73v-34.3ZM1033.27,157.83c-11.6,0-19.72-2.4-24.36-7.21-4.64-4.8-6.96-10.85-6.96-18.14v-7.95c0-7.29,2.32-13.34,6.96-18.14,4.64-4.8,12.75-7.21,24.36-7.21s19.71,2.41,24.36,7.21c4.64,4.81,6.96,10.86,6.96,18.14v7.95c0,7.29-2.32,13.34-6.96,18.14-4.64,4.81-12.76,7.21-24.36,7.21Z"/>
      <path class="cls-1" d="M1196.81,471.01l95.44-130.24-92.96-126.26h47.72l38.77,54.18,30.82,42.75h1.99l29.83-42.75,38.28-54.18h45.73l-93.95,125.77,96.44,130.74h-47.72l-43.25-60.15-29.33-40.76h-1.99l-28.33,40.76-41.76,60.15h-45.73Z"/>
    </g>
    <g>
      <path class="cls-3" d="M1451.87,241.4h-3.14v2.91h3.5v.88h-4.55v-8.08h4.37v.88h-3.32v2.55h3.14v.86Z"/>
      <path class="cls-3" d="M1459.24,244.93c-.38.19-1.15.38-2.13.38-2.28,0-3.99-1.44-3.99-4.09s1.71-4.25,4.22-4.25c1.01,0,1.64.22,1.92.36l-.25.85c-.4-.19-.96-.34-1.63-.34-1.89,0-3.15,1.21-3.15,3.33,0,1.98,1.14,3.25,3.11,3.25.64,0,1.28-.13,1.7-.34l.22.83Z"/>
      <path class="cls-3" d="M1464.63,238.14c-.22-.01-.49,0-.79.05-1.65.28-2.53,1.49-2.71,2.77h.04c.37-.49,1.02-.9,1.88-.9,1.38,0,2.35,1,2.35,2.52,0,1.43-.97,2.75-2.59,2.75s-2.76-1.3-2.76-3.32c0-1.54.55-2.75,1.32-3.51.65-.64,1.51-1.03,2.5-1.15.31-.05.58-.06.77-.06v.86ZM1464.33,242.64c0-1.12-.64-1.79-1.61-1.79-.64,0-1.22.4-1.51.96-.07.12-.12.28-.12.47.02,1.28.61,2.23,1.71,2.23.91,0,1.52-.76,1.52-1.87Z"/>
      <path class="cls-3" d="M1466.95,244.45c.23.02.49,0,.85-.04.61-.08,1.19-.34,1.63-.76.52-.47.89-1.15,1.03-2.07h-.04c-.43.53-1.06.84-1.83.84-1.4,0-2.3-1.06-2.3-2.39,0-1.48,1.07-2.77,2.66-2.77s2.58,1.3,2.58,3.29c0,1.72-.58,2.91-1.34,3.66-.6.59-1.43.95-2.27,1.04-.38.06-.72.07-.97.06v-.86ZM1467.33,239.96c0,.97.59,1.65,1.5,1.65.71,0,1.26-.35,1.54-.82.06-.1.1-.22.1-.38,0-1.33-.49-2.35-1.59-2.35-.9,0-1.54.79-1.54,1.9Z"/>
      <path class="cls-3" d="M1472.74,243.98c.3.19,1,.49,1.73.49,1.36,0,1.78-.86,1.76-1.51-.01-1.09-1-1.56-2.01-1.56h-.59v-.79h.59c.77,0,1.74-.4,1.74-1.32,0-.62-.4-1.18-1.37-1.18-.62,0-1.22.28-1.56.52l-.28-.77c.41-.3,1.2-.6,2.04-.6,1.54,0,2.23.91,2.23,1.86,0,.8-.48,1.49-1.44,1.83v.02c.96.19,1.74.91,1.74,2,0,1.25-.97,2.34-2.84,2.34-.88,0-1.64-.28-2.03-.53l.29-.82Z"/>
      <path class="cls-3" d="M1483.83,241.21c0,2.65-.98,4.11-2.71,4.11-1.52,0-2.55-1.43-2.58-4.01,0-2.61,1.13-4.05,2.71-4.05s2.58,1.46,2.58,3.95ZM1479.59,241.33c0,2.03.62,3.18,1.58,3.18,1.08,0,1.59-1.26,1.59-3.25s-.49-3.18-1.58-3.18c-.92,0-1.59,1.13-1.59,3.25Z"/>
    </g>
    <g>
      <g>
        <path class="cls-2" d="M288.38,297.56V63.33l106.25-22.48v494.56l-84.08-17.97v-219.88h-22.17ZM84.08,503.81l310.55,66.36H0V0h394.63L106.25,61.63v235.93h-22.17v206.25h0ZM250.44,71.66v225.9h-22.17v202.29l-61.92-13.23v-189.06h-22.17V94.37l106.25-22.71h0Z"/>
        <rect class="cls-4" x="79.77" y="147.44" width="90.35" height="198.78"/>
        <rect class="cls-3" x="69.73" y="335.32" width="37.36" height="177.41"/>
        <polygon class="cls-2" points="166.36 486.63 140.18 478.68 140.18 335.24 174.06 335.24 166.36 486.63"/>
        <polygon class="cls-2" points="310.55 517.44 228.19 499.77 228.19 478.6 313.74 478.6 310.55 517.44"/>
        <rect class="cls-4" x="251.14" y="461.16" width="37.06" height="58.86"/>
      </g>
      <rect class="cls-4" x="224.32" y="297.76" width="90.35" height="183.18"/>
    </g>
    <g>
      <path class="cls-1" d="M1815.48,468.02l-29.33-98.92h-121.79l-29.33,98.92h-43.25l106.38-346.98h55.18l106.38,346.98h-44.24ZM1727.5,165.29h-4.47l-48.72,167.52h101.9l-48.72-167.52Z"/>
      <path class="cls-1" d="M1912.91,433.72h75.06v-187.9h-75.06v-34.3h114.83v64.62h2.49c5.3-20.21,15.33-36.04,30.07-47.47,14.74-11.43,33.56-17.15,56.42-17.15h35.79v39.77h-48.22c-22.87,0-41.34,6.61-55.43,19.83-14.09,13.22-21.13,30.57-21.13,52.06v110.55h99.42v34.3h-214.25v-34.3Z"/>
      <path class="cls-1" d="M2330.97,473.99c-18.56,0-35.04-3.23-49.46-9.69-14.42-6.46-26.59-15.49-36.54-27.09-9.94-11.6-17.48-25.68-22.62-42.26-5.14-16.57-7.71-34.96-7.71-55.18s2.65-38.6,7.96-55.18c5.3-16.57,12.92-30.74,22.87-42.5,9.94-11.76,22.03-20.79,36.29-27.09,14.24-6.29,30.49-9.45,48.72-9.45,24.85,0,45.07,5.47,60.65,16.4,15.57,10.94,27.01,25.19,34.3,42.75l-31.81,16.9c-4.65-13.25-12.35-23.53-23.12-30.82-10.77-7.29-24.11-10.94-40.02-10.94-11.6,0-21.96,1.91-31.07,5.72-9.12,3.81-16.82,9.2-23.12,16.16-6.3,6.96-11.02,15.25-14.17,24.86-3.15,9.62-4.72,20.06-4.72,31.32v43.75c0,11.27,1.57,21.71,4.72,31.32,3.14,9.62,7.87,17.9,14.17,24.85,6.29,6.96,14.08,12.35,23.37,16.15,9.27,3.81,19.88,5.72,31.81,5.72,17.23,0,31.48-3.98,42.75-11.93,11.26-7.95,20.21-18.89,26.84-32.81l28.34,19.39c-7.63,17.24-19.47,31.49-35.54,42.75-16.08,11.26-37.03,16.9-62.88,16.9Z"/>
      <path class="cls-1" d="M2519.86,100.17h39.77v153.11h1.99c2.65-6.29,5.97-12.34,9.94-18.14,3.98-5.79,8.86-10.85,14.66-15.16,5.79-4.3,12.68-7.78,20.63-10.44,7.95-2.65,17.23-3.98,27.84-3.98,26.84,0,48.38,8.54,64.62,25.6,16.23,17.07,24.36,41.18,24.36,72.33v164.54h-39.77v-157.58c0-23.53-5.14-41.01-15.41-52.44-10.28-11.43-25.35-17.15-45.24-17.15-7.95,0-15.74.99-23.36,2.98-7.63,1.99-14.42,4.97-20.38,8.95-5.96,3.98-10.77,9.12-14.42,15.41-3.65,6.3-5.47,13.59-5.47,21.87v177.96h-39.77V100.17Z"/>
      <path class="cls-1" d="M2822.1,433.72h92.46v-187.9h-92.46v-34.3h132.23v222.2h86.5v34.3h-218.73v-34.3ZM2934.44,154.85c-11.6,0-19.72-2.4-24.36-7.21-4.65-4.8-6.96-10.85-6.96-18.14v-7.95c0-7.29,2.31-13.34,6.96-18.14,4.64-4.8,12.75-7.21,24.36-7.21s19.71,2.41,24.36,7.21c4.64,4.81,6.96,10.86,6.96,18.14v7.95c0,7.29-2.32,13.34-6.96,18.14-4.64,4.81-12.76,7.21-24.36,7.21Z"/>
      <path class="cls-1" d="M3229.22,468.02c-19.56,0-33.89-5.45-43-16.37-9.12-10.91-13.67-24.96-13.67-42.16v-163.68h-85.5v-34.3h63.63c8.61,0,14.66-1.74,18.15-5.22,3.48-3.48,5.22-9.52,5.22-18.14v-67.11h38.28v90.47h116.82v34.3h-116.82v187.9h116.82v34.3h-99.92Z"/>
      <path class="cls-1" d="M3519.52,473.99c-18.56,0-35.22-3.15-49.96-9.45-14.75-6.29-27.34-15.32-37.78-27.09-10.44-11.76-18.48-25.85-24.11-42.25-5.64-16.4-8.45-34.71-8.45-54.93s2.9-39.1,8.7-55.68c5.79-16.57,13.83-30.74,24.11-42.5,10.27-11.76,22.62-20.79,37.04-27.09,14.42-6.29,30.4-9.45,47.97-9.45s32.89,3.15,46.98,9.45c14.08,6.3,26.1,15,36.04,26.1,9.94,11.11,17.56,24.28,22.87,39.52,5.3,15.25,7.95,31.99,7.95,50.21v18.89h-189.89v11.93c0,11.27,1.82,21.71,5.47,31.32,3.64,9.62,8.86,17.9,15.66,24.85,6.79,6.96,15.08,12.35,24.86,16.15,9.77,3.81,20.63,5.72,32.56,5.72,17.23,0,32.14-3.98,44.74-11.93,12.59-7.95,22.2-18.89,28.83-32.81l29.33,19.88c-7.63,17.24-20.31,31.4-38.03,42.5-17.73,11.1-39.36,16.65-64.87,16.65ZM3517.04,238.36c-10.94,0-21.05,1.99-30.32,5.96-9.28,3.98-17.32,9.45-24.11,16.41-6.8,6.96-12.1,15.16-15.91,24.61-3.81,9.45-5.72,19.81-5.72,31.07v3.48h147.14v-5.47c0-11.26-1.74-21.54-5.22-30.82-3.48-9.27-8.29-17.31-14.42-24.11-6.14-6.79-13.59-12.01-22.37-15.66-8.78-3.64-18.48-5.47-29.08-5.47Z"/>
      <path class="cls-1" d="M3822.26,473.99c-18.56,0-35.05-3.23-49.46-9.69-14.42-6.46-26.59-15.49-36.54-27.09-9.94-11.6-17.48-25.68-22.62-42.26-5.14-16.57-7.71-34.96-7.71-55.18s2.65-38.6,7.95-55.18c5.3-16.57,12.93-30.74,22.87-42.5,9.94-11.76,22.03-20.79,36.29-27.09,14.24-6.29,30.49-9.45,48.72-9.45,24.85,0,45.07,5.47,60.65,16.4,15.57,10.94,27.01,25.19,34.3,42.75l-31.81,16.9c-4.65-13.25-12.35-23.53-23.12-30.82-10.77-7.29-24.11-10.94-40.02-10.94-11.6,0-21.96,1.91-31.07,5.72-9.12,3.81-16.82,9.2-23.12,16.16-6.3,6.96-11.02,15.25-14.17,24.86-3.15,9.62-4.72,20.06-4.72,31.32v43.75c0,11.27,1.57,21.71,4.72,31.32,3.15,9.62,7.87,17.9,14.17,24.85,6.29,6.96,14.08,12.35,23.36,16.15,9.27,3.81,19.88,5.72,31.82,5.72,17.23,0,31.48-3.98,42.75-11.93,11.26-7.95,20.21-18.89,26.84-32.81l28.34,19.39c-7.63,17.24-19.47,31.49-35.54,42.75-16.08,11.26-37.03,16.9-62.88,16.9Z"/>
      <path class="cls-1" d="M4123.99,468.02c-19.56,0-33.89-5.45-43-16.37-9.12-10.91-13.67-24.96-13.67-42.16v-163.68h-85.5v-34.3h63.63c8.61,0,14.66-1.74,18.15-5.22s5.22-9.52,5.22-18.14v-67.11h38.28v90.47h116.82v34.3h-116.82v187.9h116.82v34.3h-99.92Z"/>
    </g>
  </g>
</svg>