<?xml version="1.0" encoding="UTF-8"?>
<svg id="Layer_2" data-name="Layer 2" xmlns="http://www.w3.org/2000/svg" viewBox="0 0 2358.01 570.18">
  <defs>
    <style>
      .cls-1 {
        fill: #fff;
      }

      .cls-2 {
        fill-rule: evenodd;
      }

      .cls-2, .cls-3 {
        fill: #ec6930;
      }

      .cls-4 {
        fill: #fff;
      }
    </style>
  </defs>
  <g id="Layer_1-2" data-name="Layer 1">
    <path class="cls-1" d="M1259.52,393.38l-.63,1.92h-.81l2.07-6.1h.95l2.08,6.1h-.84l-.65-1.92h-2.16ZM1261.52,392.77l-.6-1.76c-.14-.4-.23-.76-.32-1.11h-.02c-.09.36-.19.73-.31,1.1l-.6,1.76h1.84Z"/>
    <g>
      <path class="cls-1" d="M614.33,259.68v-55.89h-2.02l-37.17,90.78-37.17-90.78h-2.02v144.39h-19.47v-176.51h27.31l31.1,77.88h1.52l31.1-77.88h26.3v176.51h-19.47v-88.51Z"/>
      <path class="cls-1" d="M677.8,330.73h47.03v-95.59h-47.03v-17.45h67.26v113.03h44v17.45h-111.26v-17.45ZM734.95,188.87c-5.9,0-10.03-1.22-12.39-3.67-2.36-2.44-3.54-5.52-3.54-9.23v-4.05c0-3.71,1.18-6.78,3.54-9.23,2.36-2.44,6.49-3.67,12.39-3.67s10.03,1.23,12.39,3.67c2.36,2.45,3.54,5.52,3.54,9.23v4.05c0,3.71-1.18,6.79-3.54,9.23-2.36,2.45-6.49,3.67-12.39,3.67Z"/>
      <path class="cls-1" d="M818.14,348.18l48.55-66.25-47.29-64.23h24.28l19.72,27.56,15.68,21.75h1.01l15.17-21.75,19.47-27.56h23.26l-47.79,63.98,49.06,66.51h-24.28l-22-30.6-14.92-20.74h-1.01l-14.41,20.74-21.24,30.6h-23.26Z"/>
    </g>
    <g>
      <path class="cls-3" d="M1451.87,242.96h-3.14v2.91h3.5v.88h-4.55v-8.08h4.37v.88h-3.32v2.55h3.14v.86Z"/>
      <path class="cls-3" d="M1459.24,246.49c-.38.19-1.15.38-2.13.38-2.28,0-3.99-1.44-3.99-4.09s1.71-4.25,4.22-4.25c1.01,0,1.64.22,1.92.36l-.25.85c-.4-.19-.96-.34-1.63-.34-1.89,0-3.15,1.21-3.15,3.33,0,1.98,1.14,3.25,3.11,3.25.64,0,1.28-.13,1.7-.34l.22.83Z"/>
      <path class="cls-3" d="M1464.63,239.7c-.22-.01-.49,0-.79.05-1.65.28-2.53,1.49-2.71,2.77h.04c.37-.49,1.02-.9,1.88-.9,1.38,0,2.35,1,2.35,2.52,0,1.43-.97,2.75-2.59,2.75s-2.76-1.3-2.76-3.32c0-1.54.55-2.75,1.32-3.51.65-.64,1.51-1.03,2.5-1.15.31-.05.58-.06.77-.06v.86ZM1464.33,244.2c0-1.12-.64-1.79-1.61-1.79-.64,0-1.22.4-1.51.96-.07.12-.12.28-.12.47.02,1.28.61,2.23,1.71,2.23.91,0,1.52-.76,1.52-1.87Z"/>
      <path class="cls-3" d="M1466.95,246.01c.23.02.49,0,.85-.04.61-.08,1.19-.34,1.63-.76.52-.47.89-1.15,1.03-2.07h-.04c-.43.53-1.06.84-1.83.84-1.4,0-2.3-1.06-2.3-2.39,0-1.48,1.07-2.77,2.66-2.77s2.58,1.3,2.58,3.29c0,1.72-.58,2.91-1.34,3.66-.6.59-1.43.95-2.27,1.04-.38.06-.72.07-.97.06v-.86ZM1467.33,241.52c0,.97.59,1.65,1.5,1.65.71,0,1.26-.35,1.54-.82.06-.1.1-.22.1-.38,0-1.33-.49-2.35-1.59-2.35-.9,0-1.54.79-1.54,1.9Z"/>
      <path class="cls-3" d="M1472.74,245.54c.3.19,1,.49,1.73.49,1.36,0,1.78-.86,1.76-1.51-.01-1.09-1-1.56-2.01-1.56h-.59v-.79h.59c.77,0,1.74-.4,1.74-1.32,0-.62-.4-1.18-1.37-1.18-.62,0-1.22.28-1.56.52l-.28-.77c.41-.3,1.2-.6,2.04-.6,1.54,0,2.23.91,2.23,1.86,0,.8-.48,1.49-1.44,1.83v.02c.96.19,1.74.91,1.74,2,0,1.25-.97,2.34-2.84,2.34-.88,0-1.64-.28-2.03-.53l.29-.82Z"/>
      <path class="cls-3" d="M1483.83,242.77c0,2.65-.98,4.11-2.71,4.11-1.52,0-2.55-1.43-2.58-4.01,0-2.61,1.13-4.05,2.71-4.05s2.58,1.46,2.58,3.95ZM1479.59,242.89c0,2.03.62,3.18,1.58,3.18,1.08,0,1.59-1.26,1.59-3.25s-.49-3.18-1.58-3.18c-.92,0-1.59,1.13-1.59,3.25Z"/>
    </g>
    <g>
      <g>
        <path class="cls-2" d="M288.38,297.56V63.33l106.25-22.48v494.56l-84.08-17.97v-219.88h-22.17ZM84.08,503.81l310.55,66.36H0V0h394.63L106.25,61.63v235.93h-22.17v206.25h0ZM250.44,71.66v225.9h-22.17v202.29l-61.92-13.23v-189.06h-22.17V94.37l106.25-22.71h0Z"/>
        <rect class="cls-4" x="79.77" y="147.44" width="90.35" height="198.78"/>
        <rect class="cls-3" x="69.73" y="335.32" width="37.36" height="177.41"/>
        <polygon class="cls-2" points="166.36 486.63 140.18 478.68 140.18 335.24 174.06 335.24 166.36 486.63"/>
        <polygon class="cls-2" points="310.55 517.44 228.19 499.77 228.19 478.6 313.74 478.6 310.55 517.44"/>
        <rect class="cls-4" x="251.14" y="461.16" width="37.06" height="58.86"/>
      </g>
      <rect class="cls-4" x="224.32" y="297.76" width="90.35" height="183.18"/>
    </g>
    <g>
      <path class="cls-1" d="M1132.86,348.18l-14.92-50.32h-61.95l-14.92,50.32h-22l54.12-176.51h28.07l54.12,176.51h-22.51ZM1088.1,194.18h-2.28l-24.78,85.22h51.84l-24.78-85.22Z"/>
      <path class="cls-1" d="M1182.42,330.73h38.18v-95.59h-38.18v-17.45h58.41v32.87h1.26c2.69-10.28,7.8-18.33,15.3-24.15,7.5-5.82,17.07-8.72,28.7-8.72h18.21v20.23h-24.53c-11.63,0-21.03,3.36-28.2,10.09-7.17,6.73-10.75,15.55-10.75,26.48v56.24h50.58v17.45h-108.99v-17.45Z"/>
      <path class="cls-1" d="M1395.08,351.21c-9.44,0-17.83-1.64-25.16-4.93-7.33-3.29-13.53-7.88-18.59-13.78-5.06-5.9-8.89-13.06-11.51-21.5-2.62-8.43-3.92-17.78-3.92-28.07s1.35-19.64,4.05-28.07c2.69-8.43,6.57-15.63,11.63-21.62,5.06-5.98,11.21-10.58,18.46-13.78,7.25-3.2,15.51-4.8,24.78-4.8,12.64,0,22.92,2.78,30.85,8.34,7.92,5.56,13.74,12.81,17.45,21.75l-16.18,8.6c-2.36-6.74-6.28-11.97-11.76-15.68-5.48-3.71-12.26-5.56-20.36-5.56-5.9,0-11.17.97-15.8,2.91-4.64,1.94-8.56,4.68-11.76,8.22-3.2,3.54-5.61,7.76-7.21,12.64-1.6,4.89-2.4,10.2-2.4,15.93v22.25c0,5.73.8,11.04,2.4,15.93,1.6,4.89,4,9.1,7.21,12.64,3.2,3.54,7.16,6.28,11.89,8.22,4.72,1.94,10.11,2.91,16.18,2.91,8.76,0,16.01-2.02,21.75-6.07,5.73-4.05,10.28-9.61,13.66-16.69l14.41,9.86c-3.88,8.77-9.91,16.02-18.08,21.75-8.18,5.73-18.84,8.6-31.99,8.6Z"/>
      <path class="cls-1" d="M1491.17,161.05h20.23v77.89h1.01c1.35-3.2,3.04-6.28,5.06-9.23,2.02-2.95,4.51-5.52,7.46-7.71,2.95-2.19,6.45-3.96,10.49-5.31,4.05-1.35,8.76-2.02,14.16-2.02,13.66,0,24.61,4.34,32.87,13.02,8.26,8.68,12.39,20.95,12.39,36.79v83.7h-20.23v-80.16c0-11.97-2.62-20.86-7.84-26.68-5.23-5.82-12.9-8.72-23.01-8.72-4.05,0-8.01.51-11.88,1.52-3.88,1.01-7.33,2.53-10.37,4.55-3.03,2.02-5.48,4.64-7.33,7.84-1.86,3.2-2.78,6.91-2.78,11.13v90.53h-20.23v-187.13Z"/>
      <path class="cls-1" d="M1644.92,330.73h47.03v-95.59h-47.03v-17.45h67.26v113.03h44v17.45h-111.26v-17.45ZM1702.07,188.87c-5.9,0-10.03-1.22-12.39-3.67-2.36-2.44-3.54-5.52-3.54-9.23v-4.05c0-3.71,1.18-6.78,3.54-9.23,2.36-2.44,6.49-3.67,12.39-3.67s10.03,1.23,12.39,3.67c2.36,2.45,3.54,5.52,3.54,9.23v4.05c0,3.71-1.18,6.79-3.54,9.23-2.36,2.45-6.49,3.67-12.39,3.67Z"/>
      <path class="cls-1" d="M1852.02,348.18c-9.95,0-17.24-2.77-21.87-8.33-4.64-5.55-6.95-12.7-6.95-21.45v-83.26h-43.49v-17.45h32.37c4.38,0,7.46-.89,9.23-2.66s2.66-4.84,2.66-9.23v-34.14h19.47v46.02h59.43v17.45h-59.43v95.59h59.43v17.45h-50.83Z"/>
      <path class="cls-1" d="M1999.7,351.21c-9.44,0-17.91-1.6-25.41-4.8-7.5-3.2-13.91-7.79-19.22-13.78-5.31-5.98-9.4-13.15-12.26-21.49-2.87-8.34-4.3-17.66-4.3-27.94s1.47-19.89,4.43-28.32c2.95-8.43,7.04-15.63,12.26-21.62,5.22-5.98,11.51-10.58,18.84-13.78,7.33-3.2,15.46-4.8,24.4-4.8s16.73,1.6,23.9,4.8c7.16,3.2,13.28,7.63,18.33,13.28,5.06,5.65,8.93,12.35,11.63,20.1,2.69,7.76,4.05,16.27,4.05,25.54v9.61h-96.6v6.07c0,5.73.92,11.04,2.78,15.93,1.85,4.89,4.51,9.1,7.96,12.64,3.45,3.54,7.67,6.28,12.64,8.22,4.97,1.94,10.49,2.91,16.56,2.91,8.76,0,16.35-2.02,22.76-6.07,6.41-4.05,11.29-9.61,14.67-16.69l14.92,10.12c-3.88,8.77-10.33,15.97-19.35,21.62-9.02,5.65-20.02,8.47-33,8.47ZM1998.43,231.35c-5.56,0-10.71,1.01-15.43,3.03-4.72,2.02-8.81,4.8-12.26,8.35-3.46,3.54-6.16,7.71-8.09,12.52-1.94,4.8-2.91,10.08-2.91,15.8v1.77h74.85v-2.78c0-5.73-.89-10.96-2.66-15.68-1.77-4.72-4.22-8.81-7.33-12.26-3.12-3.45-6.91-6.11-11.38-7.97-4.47-1.85-9.4-2.78-14.79-2.78Z"/>
      <path class="cls-1" d="M2153.7,351.21c-9.44,0-17.83-1.64-25.16-4.93s-13.53-7.88-18.59-13.78c-5.06-5.9-8.89-13.06-11.51-21.5-2.62-8.43-3.92-17.78-3.92-28.07s1.35-19.64,4.05-28.07c2.7-8.43,6.58-15.63,11.63-21.62,5.06-5.98,11.21-10.58,18.46-13.78,7.25-3.2,15.51-4.8,24.78-4.8,12.64,0,22.92,2.78,30.85,8.34,7.92,5.56,13.74,12.81,17.45,21.75l-16.18,8.6c-2.36-6.74-6.28-11.97-11.76-15.68-5.48-3.71-12.26-5.56-20.36-5.56-5.9,0-11.17.97-15.8,2.91-4.64,1.94-8.56,4.68-11.76,8.22-3.2,3.54-5.61,7.76-7.21,12.64-1.6,4.89-2.4,10.2-2.4,15.93v22.25c0,5.73.8,11.04,2.4,15.93,1.6,4.89,4,9.1,7.21,12.64,3.2,3.54,7.16,6.28,11.88,8.22,4.72,1.94,10.12,2.91,16.18,2.91,8.76,0,16.01-2.02,21.75-6.07,5.73-4.05,10.28-9.61,13.66-16.69l14.41,9.86c-3.88,8.77-9.91,16.02-18.08,21.75-8.18,5.73-18.84,8.6-31.99,8.6Z"/>
      <path class="cls-1" d="M2307.19,348.18c-9.95,0-17.24-2.77-21.87-8.33-4.64-5.55-6.95-12.7-6.95-21.45v-83.26h-43.49v-17.45h32.37c4.38,0,7.46-.89,9.23-2.66s2.66-4.84,2.66-9.23v-34.14h19.47v46.02h59.43v17.45h-59.43v95.59h59.43v17.45h-50.83Z"/>
    </g>
  </g>
</svg>
