<?xml version="1.0" encoding="UTF-8"?>
<svg id="Layer_2" data-name="Layer 2" xmlns="http://www.w3.org/2000/svg" viewBox="0 0 3268.55 570.18">
  <defs>
    <style>
      .cls-1 {
        fill-rule: evenodd;
      }

      .cls-1, .cls-2 {
        fill: #A8841E;
      }

      .cls-3 {
        fill: #fff;
      }
    </style>
  </defs>
  <g id="Layer_1-2" data-name="Layer 1">
    <rect class="cls-3" width="394.63" height="570.18"/>
    <g>
      <g>
        <path class="cls-1" d="M288.38,297.56V63.33l106.25-22.48v494.56l-84.08-17.97v-219.88h-22.17ZM84.08,503.81l310.55,66.36H0V0h394.63L106.25,61.63v235.93h-22.17v206.25h0ZM250.44,71.66v225.9h-22.17v202.29l-61.92-13.23v-189.06h-22.17V94.37l106.25-22.71h0Z"/>
        <rect class="cls-3" x="79.77" y="147.44" width="90.35" height="198.78"/>
        <rect class="cls-2" x="69.73" y="335.32" width="37.36" height="177.41"/>
        <polygon class="cls-1" points="166.36 486.63 140.18 478.68 140.18 335.24 174.06 335.24 166.36 486.63"/>
        <polygon class="cls-1" points="310.55 517.44 228.19 499.77 228.19 478.6 313.74 478.6 310.55 517.44"/>
        <rect class="cls-3" x="251.14" y="461.16" width="37.06" height="58.86"/>
      </g>
      <rect class="cls-3" x="224.32" y="297.76" width="90.35" height="183.18"/>
    </g>
    <g>
      <path class="cls-3" d="M586.18,135.55h90.83l64.11,202.13,64.11-202.13h90.83l23.15,307.2h-71.68l-11.13-210.14-66.78,210.14h-56.99l-66.78-210.14-11.13,210.14h-71.68l23.15-307.2Z"/>
      <path class="cls-3" d="M956.15,160.93c0-21.82,16.47-36.95,40.52-36.95s40.52,15.14,40.52,36.95-16.47,36.95-40.52,36.95-40.52-14.69-40.52-36.95ZM961.04,223.7h71.24v219.05h-71.24v-219.05Z"/>
      <path class="cls-3" d="M1141.35,328.33l-77.91-105.07h81.03l40.51,64.56,40.52-64.56h81.03l-77.91,105.07,87.26,114.42h-81.48l-49.42-71.68-49.42,71.68h-81.48l87.26-114.42Z"/>
      <path class="cls-3" d="M1504.65,135.55h74.8l115.76,307.2h-76.58l-20.48-61h-112.2l-20.48,61h-76.58l115.76-307.2ZM1579,324.77l-36.95-110.42-36.95,110.42h73.91Z"/>
      <path class="cls-3" d="M1717.01,223.7h69.45v33.84c12.91-26.27,31.61-38.73,56.54-38.73,8.46,0,16.92,1.78,21.37,4.01l-4.45,67.23c-7.57-4.01-16.47-7.12-27.6-7.12-33.84,0-44.08,28.94-44.08,62.33v97.5h-71.24v-219.05Z"/>
      <path class="cls-3" d="M1878.17,333.23c0-73.02,53.43-113.98,121.99-113.98,34.28,0,58.77,10.24,75.69,22.26l-15.58,55.21c-12.91-11.13-35.62-19.59-56.1-19.59-31.61,0-53.87,20.48-53.87,55.65s21.82,56.99,55.65,56.99c23.15,0,41.41-10.24,54.32-21.37l16.92,55.65c-16.92,12.47-40.96,23.6-77.47,23.6-71.68,0-121.54-43.63-121.54-114.42Z"/>
      <path class="cls-3" d="M2110.57,135.55h71.24v74.8c0,17.36-.45,36.06-.89,44.97,15.14-24.93,37.84-36.51,68.56-36.51,58.32,0,76.13,41.41,76.13,94.39v129.56h-71.24v-114.42c0-28.94-4.01-51.65-33.39-51.65s-39.18,25.82-39.18,57.43v108.63h-71.24V135.55Z"/>
      <path class="cls-3" d="M2368.35,160.93c0-21.82,16.47-36.95,40.51-36.95s40.52,15.14,40.52,36.95-16.47,36.95-40.52,36.95-40.51-14.69-40.51-36.95ZM2373.25,223.7h71.24v219.05h-71.24v-219.05Z"/>
      <path class="cls-3" d="M2504.13,362.61v-84.15h-31.17v-54.76h31.17v-59.66h71.24v59.66h48.53v54.76h-48.53v81.03c0,20.03,4.45,30.27,22.26,30.27,7.57,0,16.47-1.78,22.26-4.01l3.56,54.76c-7.12,3.12-29.83,7.12-49.87,7.12-54.32,0-69.45-29.83-69.45-85.04Z"/>
      <path class="cls-3" d="M2643.92,333.67c0-73.46,52.98-114.87,117.54-114.87s110.42,42.3,110.42,108.63c0,8.46-.89,20.48-1.34,23.6h-154.49c3.12,27.16,25.82,44.08,54.32,44.08,23.15,0,45.86-7.12,65.89-21.37l28.05,39.18c-21.82,19.14-53.43,34.73-101.06,34.73-71.24,0-119.32-42.3-119.32-113.98ZM2761.01,267.34c-29.38,0-43.63,21.82-44.97,42.3h88.6c-.45-19.59-14.69-42.3-43.63-42.3Z"/>
      <path class="cls-3" d="M2900.81,333.23c0-73.02,53.43-113.98,121.99-113.98,34.28,0,58.77,10.24,75.69,22.26l-15.58,55.21c-12.91-11.13-35.62-19.59-56.1-19.59-31.61,0-53.87,20.48-53.87,55.65s21.82,56.99,55.65,56.99c23.15,0,41.41-10.24,54.32-21.37l16.92,55.65c-16.92,12.47-40.96,23.6-77.47,23.6-71.68,0-121.54-43.63-121.54-114.42Z"/>
      <path class="cls-3" d="M3148.79,362.61v-84.15h-31.17v-54.76h31.17v-59.66h71.24v59.66h48.53v54.76h-48.53v81.03c0,20.03,4.45,30.27,22.26,30.27,7.57,0,16.47-1.78,22.26-4.01l3.56,54.76c-7.12,3.12-29.83,7.12-49.87,7.12-54.32,0-69.45-29.83-69.45-85.04Z"/>
    </g>
  </g>
</svg>