<?xml version="1.0" encoding="UTF-8"?>
<svg id="Layer_2" data-name="Layer 2" xmlns="http://www.w3.org/2000/svg" viewBox="0 0 2096 289.15">
  <defs>
    <style>
      .cls-1 {
        fill: #f16123;
      }

      .cls-2 {
        fill: #231f20;
      }
    </style>
  </defs>
  <g id="Layer_1-2" data-name="Layer 1">
    <g>
      <path class="cls-2" d="M296.32,47.13h52.8l59.1,167.7h.6l57.6-167.7h52.2v214.2h-35.7V96.03h-.6l-59.4,165.3h-30.9l-59.4-165.3h-.6v165.3h-35.7V47.13Z"/>
      <path class="cls-2" d="M559.72,47.13h34.2v32.4h-34.2v-32.4ZM559.72,106.23h34.2v155.1h-34.2V106.23Z"/>
      <path class="cls-2" d="M672.82,179.73l-53.7-73.5h41.4l32.4,47.7,33.9-47.7h39.6l-52.8,71.7,59.4,83.4h-41.1l-39.3-57.3-38.1,57.3h-40.2l58.5-81.6Z"/>
      <path class="cls-2" d="M937.71,47.13h39.9l82.5,214.2h-40.2l-20.1-56.7h-85.5l-20.1,56.7h-38.7l82.2-214.2ZM924.51,176.13h65.4l-32.1-92.1h-.9l-32.4,92.1Z"/>
      <path class="cls-2" d="M1075.71,106.23h32.1v30h.6c1-4.2,2.95-8.3,5.85-12.3,2.9-4,6.4-7.65,10.5-10.95,4.1-3.3,8.65-5.95,13.65-7.95,5-2,10.1-3,15.3-3,4,0,6.75.1,8.25.3,1.5.2,3.05.4,4.65.6v33c-2.4-.4-4.85-.75-7.35-1.05-2.5-.3-4.95-.45-7.35-.45-5.8,0-11.25,1.15-16.35,3.45-5.1,2.3-9.55,5.7-13.35,10.2-3.8,4.5-6.8,10.05-9,16.65-2.2,6.6-3.3,14.2-3.3,22.8v73.8h-34.2V106.23Z"/>
      <path class="cls-2" d="M1280.61,158.13c-1.4-9.6-5.25-16.85-11.55-21.75-6.3-4.9-14.25-7.35-23.85-7.35-4.4,0-9.1.75-14.1,2.25-5,1.5-9.6,4.3-13.8,8.4-4.2,4.1-7.7,9.8-10.5,17.1-2.8,7.3-4.2,16.85-4.2,28.65,0,6.4.75,12.8,2.25,19.2,1.5,6.4,3.9,12.1,7.2,17.1,3.3,5,7.55,9.05,12.75,12.15,5.2,3.1,11.5,4.65,18.9,4.65,10,0,18.25-3.1,24.75-9.3,6.5-6.2,10.55-14.9,12.15-26.1h34.2c-3.2,20.2-10.85,35.65-22.95,46.35-12.1,10.7-28.15,16.05-48.15,16.05-12.2,0-22.95-2.05-32.25-6.15-9.3-4.1-17.15-9.7-23.55-16.8-6.4-7.1-11.25-15.55-14.55-25.35-3.3-9.8-4.95-20.4-4.95-31.8s1.6-22.5,4.8-32.7c3.2-10.2,8-19.05,14.4-26.55,6.4-7.5,14.35-13.4,23.85-17.7,9.5-4.3,20.65-6.45,33.45-6.45,9,0,17.55,1.15,25.65,3.45,8.1,2.3,15.3,5.75,21.6,10.35,6.3,4.6,11.45,10.4,15.45,17.4,4,7,6.4,15.3,7.2,24.9h-34.2Z"/>
      <path class="cls-2" d="M1342.71,47.13h34.2v79.5h.6c4.2-7,10.45-12.85,18.75-17.55,8.3-4.7,17.55-7.05,27.75-7.05,17,0,30.4,4.4,40.2,13.2,9.8,8.8,14.7,22,14.7,39.6v106.5h-34.2v-97.5c-.4-12.2-3-21.05-7.8-26.55-4.8-5.5-12.3-8.25-22.5-8.25-5.8,0-11,1.05-15.6,3.15-4.6,2.1-8.5,5-11.7,8.7-3.2,3.7-5.7,8.05-7.5,13.05-1.8,5-2.7,10.3-2.7,15.9v91.5h-34.2V47.13Z"/>
      <path class="cls-2" d="M1515.81,47.13h34.2v32.4h-34.2v-32.4ZM1515.81,106.23h34.2v155.1h-34.2V106.23Z"/>
      <path class="cls-2" d="M1571.61,106.23h25.8v-46.5h34.2v46.5h30.9v25.5h-30.9v82.8c0,3.6.15,6.7.45,9.3.3,2.6,1,4.8,2.1,6.6,1.1,1.8,2.75,3.15,4.95,4.05,2.2.9,5.2,1.35,9,1.35,2.4,0,4.8-.05,7.2-.15,2.4-.1,4.8-.45,7.2-1.05v26.4c-3.8.4-7.5.8-11.1,1.2-3.6.4-7.3.6-11.1.6-9,0-16.25-.85-21.75-2.55-5.5-1.7-9.8-4.2-12.9-7.5-3.1-3.3-5.2-7.45-6.3-12.45-1.1-5-1.75-10.7-1.95-17.1v-91.5h-25.8v-25.5Z"/>
      <path class="cls-2" d="M1713.8,192.63c0,6,.85,11.8,2.55,17.4,1.7,5.6,4.25,10.5,7.65,14.7,3.4,4.2,7.7,7.55,12.9,10.05,5.2,2.5,11.4,3.75,18.6,3.75,10,0,18.05-2.15,24.15-6.45,6.1-4.3,10.65-10.75,13.65-19.35h32.4c-1.8,8.4-4.9,15.9-9.3,22.5-4.4,6.6-9.7,12.15-15.9,16.65-6.2,4.5-13.15,7.9-20.85,10.2-7.7,2.3-15.75,3.45-24.15,3.45-12.2,0-23-2-32.4-6-9.4-4-17.35-9.6-23.85-16.8-6.5-7.2-11.4-15.8-14.7-25.8-3.3-10-4.95-21-4.95-33,0-11,1.75-21.45,5.25-31.35,3.5-9.9,8.5-18.6,15-26.1,6.5-7.5,14.35-13.45,23.55-17.85,9.2-4.4,19.6-6.6,31.2-6.6,12.2,0,23.15,2.55,32.85,7.65,9.7,5.1,17.75,11.85,24.15,20.25,6.4,8.4,11.05,18.05,13.95,28.95,2.9,10.9,3.65,22.15,2.25,33.75h-114ZM1793.6,170.13c-.4-5.4-1.55-10.6-3.45-15.6-1.9-5-4.5-9.35-7.8-13.05-3.3-3.7-7.3-6.7-12-9-4.7-2.3-9.95-3.45-15.75-3.45s-11.45,1.05-16.35,3.15c-4.9,2.1-9.1,5-12.6,8.7-3.5,3.7-6.3,8.05-8.4,13.05-2.1,5-3.25,10.4-3.45,16.2h79.8Z"/>
      <path class="cls-2" d="M1958.6,158.13c-1.4-9.6-5.25-16.85-11.55-21.75-6.3-4.9-14.25-7.35-23.85-7.35-4.4,0-9.1.75-14.1,2.25-5,1.5-9.6,4.3-13.8,8.4-4.2,4.1-7.7,9.8-10.5,17.1-2.8,7.3-4.2,16.85-4.2,28.65,0,6.4.75,12.8,2.25,19.2,1.5,6.4,3.9,12.1,7.2,17.1,3.3,5,7.55,9.05,12.75,12.15,5.2,3.1,11.5,4.65,18.9,4.65,10,0,18.25-3.1,24.75-9.3,6.5-6.2,10.55-14.9,12.15-26.1h34.2c-3.2,20.2-10.85,35.65-22.95,46.35-12.1,10.7-28.15,16.05-48.15,16.05-12.2,0-22.95-2.05-32.25-6.15-9.3-4.1-17.15-9.7-23.55-16.8-6.4-7.1-11.25-15.55-14.55-25.35-3.3-9.8-4.95-20.4-4.95-31.8s1.6-22.5,4.8-32.7c3.2-10.2,8-19.05,14.4-26.55,6.4-7.5,14.35-13.4,23.85-17.7,9.5-4.3,20.65-6.45,33.45-6.45,9,0,17.55,1.15,25.65,3.45,8.1,2.3,15.3,5.75,21.6,10.35,6.3,4.6,11.45,10.4,15.45,17.4,4,7,6.4,15.3,7.2,24.9h-34.2Z"/>
      <path class="cls-2" d="M2005.1,106.23h25.8v-46.5h34.2v46.5h30.9v25.5h-30.9v82.8c0,3.6.15,6.7.45,9.3.3,2.6,1,4.8,2.1,6.6,1.1,1.8,2.75,3.15,4.95,4.05,2.2.9,5.2,1.35,9,1.35,2.4,0,4.8-.05,7.2-.15,2.4-.1,4.8-.45,7.2-1.05v26.4c-3.8.4-7.5.8-11.1,1.2-3.6.4-7.3.6-11.1.6-9,0-16.25-.85-21.75-2.55-5.5-1.7-9.8-4.2-12.9-7.5-3.1-3.3-5.2-7.45-6.3-12.45-1.1-5-1.75-10.7-1.95-17.1v-91.5h-25.8v-25.5Z"/>
    </g>
    <g>
      <polygon class="cls-2" points="162.63 69 153.67 69 153.67 199.58 146.96 199.58 146.96 234.34 153.67 234.34 153.67 289.15 162.63 289.15 162.63 234.34 169.34 234.34 169.34 199.58 162.63 199.58 162.63 69"/>
      <polygon class="cls-2" points="93.23 69 84.83 69 84.83 182.2 78.11 182.2 78.11 216.96 84.83 216.96 84.83 289.15 93.23 289.15 93.23 216.96 99.94 216.96 99.94 182.2 93.23 182.2 93.23 69"/>
      <polygon class="cls-2" points="24.38 69 15.43 69 15.43 133.18 8.71 133.18 8.71 167.94 15.43 167.94 15.43 289.15 24.38 289.15 24.38 167.94 31.1 167.94 31.1 133.18 24.38 133.18 24.38 69"/>
    </g>
    <rect class="cls-2" y="129.01" width="38.19" height="53.77"/>
    <rect class="cls-2" x="69.03" y="176.16" width="38.19" height="53.77"/>
    <rect class="cls-1" x="138.58" y="195.64" width="38.19" height="53.77"/>
    <rect class="cls-2" x="84.64" y="39.58" width="8.42" height="34.68"/>
    <rect class="cls-2" x="153.49" width="8.95" height="74.29"/>
    <rect class="cls-2" x="82.05" y="-38.82" width="8.42" height="154.19" transform="translate(81.88 -55.99) rotate(63.42)"/>
  </g>
</svg>