<?xml version="1.0" encoding="UTF-8"?>
<svg id="Layer_2" xmlns="http://www.w3.org/2000/svg" version="1.1" viewBox="0 0 2339.8 598.3">
  <!-- Generator: Adobe Illustrator 30.3.0, SVG Export Plug-In . SVG Version: 2.1.3 Build 182)  -->
  <defs>
    <style>
      .st0 {
        isolation: isolate;
      }

      .st1 {
        fill: #fff;
      }

      .st2 {
        fill: #109488;
      }
    </style>
  </defs>
  <g id="Layer_1-2">
    <g class="st0">
      <g class="st0">
        <path class="st1" d="M76.4,435.5H30.2V163.2h46.2l87.9,216.8,87.9-216.8h46.9v272.3h-46.2v-118.3c0-9.3.1-17.2.4-23.7.2-6.5.5-12.2.7-17.1.2-5,.7-9.9,1.5-14.9l-69.3,174h-44l-68.9-173.6c1.2,8.2,2,18.6,2.4,31.3.4,12.7.6,27.6.6,44.7v97.6Z"/>
        <path class="st1" d="M371.8,214.6c-7.7,0-14.2-2.7-19.6-8-5.3-5.3-8-11.9-8-19.6s2.7-14.2,8-19.4c5.3-5.2,11.9-7.8,19.6-7.8s14.2,2.6,19.6,7.8c5.3,5.2,8,11.7,8,19.4s-2.7,14.2-8,19.6c-5.3,5.3-11.9,8-19.6,8ZM349.4,435.5v-184h45.4v184h-45.4Z"/>
        <path class="st1" d="M470.5,435.5h-51.8l63.3-90.2-63.3-93.9h52.9l40.6,62.6,39.1-62.6h51l-62.6,93.5,60.7,90.5h-52.2l-39.5-60.7-38.4,60.7Z"/>
        <path class="st1" d="M850.5,435.5h-49.2l98.3-272.3h48.8l98.3,272.3h-50.3l-22-63h-101.7l-22.4,63ZM917.9,244.4l-31.3,87.9h74.1l-31.3-87.9c-1-3.7-2.1-7.5-3.4-11.2-1.2-3.7-2-6.9-2.2-9.7-.5,2.5-1.3,5.7-2.4,9.5-1.1,3.9-2.3,7.6-3.5,11.4Z"/>
      </g>
      <g class="st0">
        <path class="st1" d="M1184.3,250.7v42.1h-16.8c-16.6,0-29.7,4.4-39.1,13.2-9.4,8.8-14.2,22.2-14.2,40v89.4h-45.4v-183.7h42.8l3.7,38h-4.5c2.5-12.2,8.3-22.1,17.5-29.8,9.2-7.7,21.1-11.5,35.8-11.5s6.5.1,9.7.4c3.2.2,6.7.9,10.4,1.9Z"/>
      </g>
      <g class="st0">
        <path class="st1" d="M1194.3,343.1c0-18.9,3.9-35.6,11.7-50.3,7.8-14.7,18.6-26.1,32.4-34.5,13.8-8.3,29.7-12.5,47.9-12.5s45.6,6.5,61.7,19.6c16,13,25.3,30.6,27.8,52.7h-45.4c-2.7-10.4-7.8-18.3-15.1-23.7-7.3-5.3-16.5-8-27.4-8s-17.8,2.3-25.1,6.9c-7.3,4.6-13,11.1-17,19.6-4,8.4-6,18.5-6,30.2s1.9,21.7,5.6,30.2c3.7,8.4,9.1,15,16.2,19.6,7.1,4.6,15.5,6.9,25.1,6.9s20.9-2.7,28.5-8.2c7.6-5.5,12.6-13.3,15.1-23.5h45.8c-2,14.4-7,27-15.1,37.8-8.1,10.8-18.4,19.2-31.1,25.3s-27.1,9.1-43.2,9.1-34.9-4-48.8-12.1c-13.9-8.1-24.7-19.4-32.2-33.9-7.6-14.5-11.4-31.6-11.4-51.2Z"/>
        <path class="st1" d="M1452.1,435.5h-45.4V158.3h45.8v117c5.7-8.9,13.7-16.1,24-21.4,10.3-5.3,22.2-8,35.6-8,22.6,0,39.8,6.8,51.6,20.5,11.8,13.7,17.7,32.3,17.7,55.9v113.2h-45.4v-102.4c0-10.4-1.6-19-4.8-25.7-3.2-6.7-7.7-11.7-13.4-15.1-5.7-3.4-12.4-5-20.1-5s-17.6,2-24.4,6.1c-6.8,4.1-12,9.8-15.6,17-3.6,7.2-5.4,15.4-5.4,24.6v100.6Z"/>
        <path class="st1" d="M1645.1,214.6c-7.7,0-14.2-2.7-19.6-8-5.3-5.3-8-11.9-8-19.6s2.7-14.2,8-19.4c5.3-5.2,11.9-7.8,19.6-7.8s14.2,2.6,19.6,7.8c5.3,5.2,8,11.7,8,19.4s-2.7,14.2-8,19.6c-5.3,5.3-11.9,8-19.6,8ZM1622.7,435.5v-184h45.4v184h-45.4Z"/>
      </g>
      <g class="st0">
        <path class="st1" d="M1692.4,251.4h116.2v38h-116.2v-38ZM1773.2,435.5h-45.4v-241.4h45.4v241.4Z"/>
      </g>
      <g class="st0">
        <path class="st1" d="M1914,440.3c-18.1,0-34.2-4.2-48.2-12.5-14-8.3-25-19.7-33-34.3-8-14.5-11.9-31.2-11.9-50.1s3.8-36,11.5-50.7c7.7-14.7,18.5-26.1,32.4-34.5,13.9-8.3,29.8-12.5,47.7-12.5s34.6,3.9,48.1,11.7,23.8,18.7,31.1,32.6c7.3,13.9,11,30.5,11,49.9v13.8l-158,.4.7-29.1h112.1c0-12.7-4-22.8-12.1-30.5-8.1-7.7-18.9-11.5-32.6-11.5s-19.7,2.2-27,6.7c-7.3,4.5-12.9,11.2-16.6,20.1-3.7,8.9-5.6,19.9-5.6,32.8,0,19.9,4.3,34.9,12.9,45.1,8.6,10.2,21.3,15.3,38.2,15.3s22.7-2.4,30.7-7.1c8.1-4.7,13.3-11.4,15.8-20.1h42.1c-4,20.1-13.8,35.9-29.6,47.3-15.8,11.4-35.7,17.1-59.8,17.1Z"/>
        <path class="st1" d="M2028.4,343.1c0-18.9,3.9-35.6,11.7-50.3,7.8-14.7,18.6-26.1,32.4-34.5,13.8-8.3,29.7-12.5,47.9-12.5s45.6,6.5,61.7,19.6c16,13,25.3,30.6,27.8,52.7h-45.4c-2.7-10.4-7.8-18.3-15.1-23.7-7.3-5.3-16.5-8-27.4-8s-17.8,2.3-25.1,6.9c-7.3,4.6-13,11.1-17,19.6-4,8.4-6,18.5-6,30.2s1.9,21.7,5.6,30.2c3.7,8.4,9.1,15,16.2,19.6,7.1,4.6,15.5,6.9,25.1,6.9s20.9-2.7,28.5-8.2c7.6-5.5,12.6-13.3,15.1-23.5h45.8c-2,14.4-7,27-15.1,37.8-8.1,10.8-18.4,19.2-31.1,25.3s-27.1,9.1-43.2,9.1-34.9-4-48.8-12.1c-13.9-8.1-24.7-19.4-32.2-33.9-7.6-14.5-11.4-31.6-11.4-51.2Z"/>
        <path class="st1" d="M2225.8,251.4h116.2v38h-116.2v-38ZM2306.7,435.5h-45.4v-241.4h45.4v241.4Z"/>
      </g>
    </g>
    <g>
      <path class="st2" d="M712.9,0h0c9.4,0,17,7.6,17,17v564.4c0,9.4-7.6,17-17,17h0c-9.4,0-17-7.6-17-17V17c0-9.4,7.6-17,17-17Z"/>
      <rect class="st2" x="669.2" y="206.8" width="87.5" height="184.6" rx="16.9" ry="16.9"/>
    </g>
  </g>
</svg>