<svg xmlns="http://www.w3.org/2000/svg" viewBox="0 0 720 360" width="720" height="360" style="background:#0a0f1a">
<path d="M240.9 340.1 L240.3 341.1 L239.7 342.0 L235.5 341.7 L231.0 341.8 L228.5 341.2 L228.5 341.1 L227.4 340.5 L231.9 340.6 L236.2 340.8 L237.7 340.0 L238.8 339.3 L240.9 340.1Z M41.6 339.0 L37.7 339.3 L35.1 338.6 L33.9 337.9 L33.9 337.7 L32.6 337.2 L33.8 336.4 L37.5 336.8 L39.5 337.4 L41.0 338.1 L41.6 339.0Z M269.7 336.1 L272.2 337.0 L273.0 338.2 L273.3 339.0 L273.3 340.1 L270.2 340.7 L267.0 341.2 L263.2 341.7 L259.0 342.1 L254.3 341.9 L251.7 341.3 L252.0 340.4 L256.3 339.9 L258.0 339.2 L259.3 338.4 L260.2 337.6 L261.4 336.9 L262.7 336.1 L263.7 336.1 L266.7 335.7 L269.7 336.1Z M117.6 327.0 L120.2 327.3 L122.6 327.0 L121.4 327.7 L119.5 328.2 L116.8 328.0 L114.8 327.3 L115.2 326.6 L117.6 327.0Z M108.9 327.0 L111.9 327.7 L110.8 327.7 L108.2 327.5 L105.4 326.9 L106.9 326.5 L108.9 327.0Z M162.0 323.9 L164.2 324.1 L166.4 323.9 L167.6 325.0 L166.0 324.9 L163.6 325.0 L161.1 324.9 L158.4 325.0 L156.4 324.6 L155.3 323.8 L156.6 323.4 L159.1 323.7 L162.0 323.9Z M223.1 321.9 L223.3 322.8 L223.0 323.6 L222.4 324.3 L220.1 324.6 L217.8 325.0 L215.2 325.0 L216.2 324.2 L213.8 324.5 L211.6 324.7 L210.1 324.1 L210.0 323.3 L212.2 322.5 L213.5 322.3 L215.9 322.4 L216.4 321.4 L216.6 320.6 L216.5 319.0 L217.7 318.1 L219.5 317.8 L220.6 318.5 L221.0 319.2 L221.9 320.1 L222.5 321.0 L223.1 321.9Z M0.0 349.4 L0.1 349.4 L1.9 348.3 L5.5 348.9 L5.7 348.8 L6.3 348.7 L7.0 348.5 L7.5 348.3 L7.8 348.2 L8.1 348.2 L8.3 348.2 L11.2 349.1 L13.8 348.2 L14.2 348.1 L20.1 347.8 L22.0 348.2 L22.9 348.5 L26.0 349.1 L31.6 349.7 L36.1 350.3 L43.9 350.7 L49.6 350.2 L58.1 350.6 L62.9 351.2 L68.2 350.6 L73.8 350.1 L74.2 349.1 L66.3 349.1 L59.9 348.6 L58.2 347.8 L52.8 347.4 L53.2 346.5 L53.9 345.7 L54.7 344.9 L54.3 344.1 L50.9 343.5 L49.4 342.8 L46.3 342.2 L51.2 342.3 L55.8 342.0 L58.7 342.7 L62.3 342.1 L65.6 341.3 L67.2 340.7 L66.5 339.9 L63.9 339.3 L60.9 338.7 L56.8 338.6 L53.2 338.3 L49.3 338.1 L48.0 337.4 L45.5 336.8 L43.9 336.1 L43.3 333.8 L44.3 334.0 L46.1 334.6 L49.3 334.4 L52.5 334.1 L54.2 335.0 L57.3 334.8 L60.0 334.4 L62.5 333.8 L64.8 333.2 L67.8 333.0 L67.7 332.2 L67.0 331.5 L67.6 330.8 L70.2 330.4 L71.4 331.1 L74.4 330.7 L76.7 330.2 L79.6 330.1 L82.3 329.9 L85.0 329.5 L87.1 329.0 L89.6 328.6 L91.1 328.7 L92.5 328.9 L95.5 328.6 L98.2 329.0 L100.9 328.9 L103.5 328.6 L106.2 328.8 L109.2 329.0 L112.0 329.0 L114.9 329.0 L117.9 329.0 L120.6 329.0 L122.6 328.4 L125.1 328.1 L127.6 328.5 L130.0 328.1 L132.1 327.4 L133.4 328.1 L134.1 328.8 L135.4 329.4 L137.5 328.8 L139.9 329.6 L142.6 329.8 L144.9 330.4 L147.7 330.3 L150.3 329.9 L153.3 330.0 L156.0 330.3 L158.7 330.6 L159.8 329.7 L158.5 329.1 L157.5 328.4 L154.9 328.2 L153.8 327.5 L153.3 326.7 L152.6 325.2 L154.2 325.5 L156.8 325.6 L159.4 325.5 L161.7 325.8 L163.8 326.4 L164.6 327.1 L167.3 327.2 L169.9 327.0 L172.7 326.6 L175.1 326.3 L177.2 326.8 L179.8 326.6 L181.5 325.1 L183.2 326.0 L185.5 326.4 L188.0 326.2 L189.6 327.0 L192.2 327.0 L194.7 327.3 L197.1 327.7 L198.6 327.0 L199.4 326.3 L201.4 327.0 L204.2 326.8 L206.2 327.3 L207.6 327.9 L210.2 327.7 L212.3 327.3 L214.3 326.8 L216.8 326.5 L219.6 326.3 L222.1 326.0 L224.1 325.6 L225.3 325.0 L225.7 324.1 L225.5 323.3 L224.9 322.5 L224.2 321.7 L223.5 320.9 L223.0 320.2 L222.9 319.4 L223.1 318.6 L224.0 317.9 L224.8 317.1 L225.1 316.3 L224.8 315.4 L224.5 314.7 L225.5 313.8 L226.6 313.2 L227.9 312.4 L229.3 311.8 L230.9 311.2 L231.6 310.3 L232.7 309.8 L234.0 309.3 L235.9 309.2 L237.2 308.5 L238.6 308.1 L240.2 307.9 L241.7 307.4 L242.8 306.8 L244.4 306.5 L245.6 307.1 L244.8 307.7 L242.8 308.3 L241.9 308.7 L240.4 308.4 L238.8 308.6 L237.4 309.1 L236.0 309.6 L235.0 310.2 L234.7 311.0 L234.8 311.7 L235.8 312.4 L234.4 312.9 L232.5 313.0 L231.4 313.7 L230.2 314.3 L229.0 315.2 L228.7 315.9 L229.4 316.7 L230.4 317.4 L232.1 317.8 L233.6 318.5 L234.4 319.2 L234.9 320.0 L235.4 320.8 L236.4 321.4 L237.0 322.2 L237.2 324.0 L237.8 324.8 L238.0 325.5 L238.6 326.3 L238.3 327.4 L237.2 328.2 L236.1 328.9 L233.4 329.2 L232.5 329.9 L231.3 330.5 L228.3 331.3 L225.6 331.6 L223.1 332.0 L220.4 332.4 L218.8 333.3 L215.6 333.3 L212.1 333.3 L208.9 333.4 L205.5 333.4 L206.1 334.2 L209.2 334.6 L211.4 335.1 L212.7 335.8 L210.5 336.4 L207.0 336.2 L204.2 336.8 L204.0 337.6 L203.9 338.4 L206.3 339.0 L206.7 339.8 L209.3 340.5 L213.5 340.8 L217.1 341.4 L220.0 342.0 L223.6 342.6 L228.6 342.9 L233.5 343.5 L236.9 344.1 L240.6 344.8 L242.6 345.7 L243.6 346.4 L246.0 345.7 L249.3 345.1 L252.8 344.5 L256.9 344.0 L260.5 343.5 L265.5 343.4 L270.3 343.7 L274.4 344.2 L275.7 343.3 L278.5 342.7 L283.5 342.7 L287.5 342.2 L291.2 341.8 L295.4 341.5 L299.8 341.2 L302.9 340.7 L301.5 340.0 L300.6 339.3 L300.6 338.5 L296.8 338.6 L292.6 338.9 L288.7 338.9 L288.2 338.2 L288.4 336.7 L289.3 336.2 L292.2 335.8 L295.6 335.3 L298.0 334.7 L300.4 334.1 L302.2 333.3 L305.0 333.0 L307.7 332.7 L309.0 332.6 L312.1 332.5 L315.1 332.2 L317.6 331.8 L320.0 331.3 L322.2 330.9 L325.0 330.3 L326.7 329.6 L328.6 329.0 L329.2 328.2 L327.1 327.7 L327.8 326.9 L329.1 326.3 L331.2 325.9 L333.4 325.4 L335.4 324.8 L337.0 324.0 L338.0 323.1 L339.4 322.5 L341.8 322.6 L342.8 323.3 L345.2 323.4 L345.2 322.6 L346.3 321.9 L348.4 322.1 L348.9 322.8 L351.3 322.9 L353.9 322.6 L356.4 322.3 L358.7 322.5 L359.5 323.3 L361.7 322.6 L363.8 322.3 L366.0 322.0 L368.3 321.7 L370.3 321.2 L372.5 320.9 L374.3 320.5 L375.5 319.8 L377.0 320.3 L379.0 320.0 L380.5 321.0 L381.6 321.7 L383.9 321.3 L384.8 320.5 L386.8 319.9 L389.5 320.1 L390.3 320.8 L391.9 320.1 L394.1 319.8 L396.4 319.8 L398.5 319.8 L400.7 320.0 L402.9 320.1 L403.8 320.8 L405.1 321.4 L407.3 321.0 L409.7 321.0 L412.0 321.0 L414.2 320.9 L416.2 320.7 L418.3 320.4 L420.1 319.9 L421.9 319.5 L424.0 319.3 L425.5 318.8 L426.6 317.7 L427.7 317.0 L429.8 317.3 L430.6 318.0 L432.3 318.5 L434.4 318.3 L435.8 319.0 L437.3 319.6 L439.3 319.1 L440.0 318.2 L441.8 317.9 L443.9 317.2 L445.9 316.9 L448.2 316.5 L449.8 316.1 L451.4 315.6 L453.0 315.2 L454.9 315.4 L456.7 314.7 L458.0 314.2 L459.9 314.2 L461.5 313.8 L461.9 313.0 L463.6 312.5 L465.2 312.1 L467.2 311.8 L469.1 311.6 L470.8 311.8 L472.7 312.0 L474.3 312.5 L474.5 313.4 L476.3 314.0 L477.5 314.6 L479.9 314.8 L481.2 315.4 L482.9 315.9 L484.8 316.0 L486.4 315.6 L488.1 314.8 L490.0 315.2 L491.9 315.5 L493.8 315.7 L495.8 315.9 L497.8 315.9 L499.4 317.9 L499.3 318.5 L499.1 319.4 L497.2 319.9 L495.6 320.6 L495.9 321.4 L498.1 321.4 L497.9 322.1 L496.8 322.9 L495.9 323.7 L497.4 324.3 L499.7 324.5 L502.0 324.2 L503.1 323.4 L503.8 322.6 L504.9 322.0 L506.2 321.4 L506.7 320.7 L507.7 319.8 L509.0 319.6 L511.3 319.5 L513.2 319.2 L515.3 318.9 L516.3 318.1 L516.9 317.4 L518.2 316.7 L520.2 316.1 L521.9 315.8 L523.0 315.1 L524.1 314.7 L525.6 314.4 L527.5 314.6 L529.3 314.4 L531.3 314.2 L533.5 314.3 L535.0 313.8 L536.0 312.4 L536.7 313.0 L537.7 313.9 L539.3 314.3 L541.3 314.5 L543.2 314.2 L545.2 314.4 L547.1 314.4 L548.4 314.2 L550.0 314.3 L551.6 314.8 L553.4 314.5 L555.5 314.5 L557.4 314.2 L559.4 314.5 L560.8 313.8 L561.8 313.2 L563.2 312.6 L565.7 311.1 L567.0 311.4 L568.5 312.0 L569.8 312.7 L572.4 313.9 L574.3 313.9 L576.2 313.9 L578.3 313.7 L580.5 313.4 L582.1 312.9 L583.5 312.3 L585.7 312.2 L587.2 311.8 L588.8 312.1 L589.8 312.8 L591.2 313.4 L593.4 313.3 L594.8 313.8 L597.2 314.3 L599.7 314.5 L601.7 314.4 L603.3 313.8 L604.6 313.1 L606.4 313.0 L608.2 313.2 L610.3 313.4 L612.2 313.1 L614.0 313.1 L615.8 313.3 L617.6 313.5 L619.4 313.2 L621.6 312.9 L623.6 312.8 L625.9 312.8 L627.7 312.6 L629.5 312.4 L630.1 311.4 L630.1 310.6 L631.4 311.2 L631.7 312.1 L632.4 312.9 L633.2 313.6 L634.9 313.9 L637.2 313.8 L639.8 313.8 L641.6 313.6 L644.2 313.6 L646.1 313.6 L648.7 313.7 L651.0 313.8 L652.4 314.5 L652.0 315.2 L653.3 315.8 L655.4 316.3 L657.7 316.8 L660.3 317.1 L663.0 317.4 L665.0 317.7 L667.3 317.8 L668.6 317.1 L670.3 317.7 L671.9 318.3 L673.6 318.8 L676.1 319.0 L678.4 319.2 L679.3 320.0 L681.6 320.5 L683.1 321.2 L685.4 321.5 L687.7 321.4 L689.8 321.6 L692.2 321.5 L694.6 321.7 L696.9 321.9 L698.9 322.4 L701.0 322.8 L702.4 323.4 L702.2 324.2 L701.1 324.9 L700.2 325.8 L699.5 326.5 L698.6 327.3 L696.0 327.6 L694.8 328.3 L692.2 328.8 L691.3 329.5 L689.9 330.3 L688.5 330.9 L687.6 331.7 L687.1 332.5 L686.9 333.4 L687.0 334.1 L688.1 334.9 L688.6 335.7 L689.5 336.4 L693.2 336.6 L694.0 337.5 L690.4 337.8 L687.3 338.2 L683.5 338.3 L681.8 339.5 L681.5 340.4 L680.6 341.1 L679.6 341.9 L682.2 342.6 L683.3 343.4 L685.0 344.1 L687.4 344.8 L690.2 345.4 L693.2 346.0 L697.8 346.7 L698.8 347.7 L704.6 348.1 L705.0 348.2 L706.4 348.8 L712.0 348.3 L716.6 348.9 L0.0 349.4Z M224.5 287.7 L227.1 288.9 L229.9 289.4 L229.0 290.4 L227.1 290.5 L226.1 289.8 L225.4 290.6 L223.7 291.2 L221.5 291.0 L220.1 290.4 L218.0 290.1 L215.5 289.0 L213.4 287.9 L210.7 285.7 L212.3 286.1 L215.1 287.4 L217.8 288.1 L218.8 287.2 L219.5 285.9 L221.3 285.0 L222.7 285.3 L223.5 286.2 L224.5 287.7Z M242.9 282.2 L244.5 283.1 L243.9 283.8 L241.2 284.4 L240.3 283.7 L238.6 284.6 L237.6 283.7 L240.0 282.5 L241.7 283.0 L242.9 282.2Z M500.6 279.4 L497.5 279.5 L497.4 278.5 L497.7 277.7 L497.9 277.2 L499.2 277.9 L501.1 278.1 L501.1 278.5 L500.6 279.4Z M650.8 261.6 L652.7 262.3 L653.8 262.0 L655.4 261.6 L656.6 261.7 L656.7 264.1 L656.0 264.8 L655.8 266.4 L655.1 265.9 L653.7 267.3 L653.3 267.2 L652.1 267.1 L650.9 265.4 L650.6 264.1 L649.4 262.3 L649.5 261.4 L650.8 261.6Z M706.0 261.8 L706.5 262.7 L707.9 261.9 L708.5 262.7 L708.5 263.5 L707.8 264.5 L706.4 265.9 L705.4 266.7 L706.2 267.7 L704.6 267.7 L702.9 268.5 L702.4 269.8 L701.2 271.8 L699.7 272.7 L698.7 273.3 L696.8 273.2 L695.5 272.6 L693.4 272.4 L693.0 271.7 L694.1 270.2 L696.6 268.2 L697.9 267.9 L699.3 267.1 L701.0 266.1 L702.3 265.0 L703.1 263.5 L703.9 263.0 L704.2 261.9 L705.6 261.0 L706.0 261.8Z M709.2 252.3 L710.7 254.4 L710.7 253.1 L711.6 253.6 L711.9 255.1 L713.5 255.8 L714.9 255.9 L716.0 255.2 L717.0 255.4 L716.6 257.2 L715.9 258.3 L714.4 258.3 L713.9 258.9 L714.1 259.8 L713.8 260.1 L713.0 261.2 L712.0 262.6 L710.5 263.4 L710.1 262.9 L709.3 262.6 L710.5 260.9 L709.8 259.8 L707.6 259.0 L707.7 258.3 L709.1 257.6 L709.5 256.1 L709.4 254.8 L708.6 253.4 L708.6 253.1 L707.7 252.2 L706.1 250.5 L705.3 249.1 L706.0 248.9 L707.1 250.0 L708.7 250.5 L709.2 252.3Z M694.2 224.3 L693.5 224.8 L692.4 224.3 L690.9 223.4 L689.7 222.3 L688.3 220.9 L688.1 220.2 L688.9 220.2 L690.0 220.9 L690.9 221.6 L691.6 222.2 L693.2 223.4 L694.2 224.3Z M716.7 214.7 L717.4 215.3 L717.1 216.3 L715.9 216.6 L714.8 216.3 L714.6 215.4 L715.3 214.8 L716.2 215.0 L716.7 214.7Z M0.0 213.1 L718.7 213.6 L717.5 214.0 L717.2 213.3 L718.2 212.9 L718.8 212.8 L0.0 212.1 L0.0 212.1 L0.4 212.0 L0.2 213.0 L0.0 213.1Z M695.7 212.9 L695.0 213.2 L694.4 212.3 L694.4 211.8 L695.7 212.9Z M694.2 209.9 L694.5 211.5 L694.0 211.2 L693.6 211.3 L693.3 210.8 L693.3 209.3 L694.2 209.9Z M460.1 207.1 L460.4 209.5 L461.0 210.5 L460.8 211.4 L460.4 212.0 L459.7 210.8 L459.3 211.4 L459.7 212.9 L459.6 213.7 L459.0 214.2 L458.9 215.9 L458.1 218.2 L457.1 221.0 L455.9 224.8 L455.1 227.6 L454.2 229.9 L452.6 230.4 L450.8 231.2 L449.7 230.7 L448.1 230.0 L447.5 228.9 L447.4 227.1 L446.7 225.6 L446.5 224.1 L446.9 222.7 L447.8 222.3 L447.8 221.7 L448.8 220.1 L448.9 218.9 L448.5 217.9 L448.1 216.7 L447.9 214.8 L448.6 213.7 L448.9 212.4 L449.9 212.4 L451.0 211.9 L451.7 211.6 L452.6 211.6 L453.8 210.4 L455.4 209.2 L456.0 208.2 L455.7 207.3 L456.6 207.6 L457.7 206.2 L457.7 205.0 L458.4 204.1 L459.1 204.9 L459.6 205.8 L460.1 207.1Z M647.1 207.5 L647.8 209.1 L649.1 208.3 L649.8 209.2 L650.7 210.0 L650.5 210.9 L651.0 212.6 L651.3 213.6 L651.8 213.8 L652.3 215.5 L652.1 216.6 L652.8 217.9 L654.9 219.0 L656.4 219.9 L657.7 220.8 L657.4 221.3 L658.6 222.5 L659.4 224.7 L660.2 224.2 L661.0 225.1 L661.5 224.8 L661.8 226.9 L663.2 228.2 L664.1 228.9 L665.7 230.5 L666.3 232.1 L666.3 233.3 L666.2 234.5 L667.1 236.2 L667.0 238.0 L666.7 238.9 L666.1 240.7 L666.2 241.8 L665.8 243.3 L664.9 245.1 L663.4 246.1 L662.7 247.6 L662.0 248.6 L661.4 250.3 L660.7 251.3 L660.2 252.8 L659.9 254.2 L660.0 254.9 L658.8 255.5 L656.6 255.6 L654.8 256.4 L653.8 257.2 L652.6 258.1 L651.0 257.2 L649.8 256.8 L650.1 255.8 L649.0 256.2 L647.2 257.6 L645.5 257.1 L644.4 256.8 L643.2 256.6 L641.3 256.0 L640.0 254.8 L639.6 253.3 L639.2 252.3 L638.2 251.5 L636.2 251.2 L636.9 250.3 L636.4 248.8 L635.4 250.2 L633.7 250.5 L634.7 249.4 L635.0 248.3 L635.8 247.3 L635.6 245.8 L634.0 247.5 L632.7 248.2 L632.0 249.8 L630.4 249.0 L630.5 247.9 L629.2 246.4 L628.2 245.7 L628.5 245.2 L626.0 244.0 L624.6 244.0 L622.7 243.0 L619.1 243.2 L616.5 243.9 L614.2 244.6 L612.3 244.4 L610.2 245.5 L608.4 245.9 L608.1 247.0 L607.3 247.8 L605.6 247.8 L604.4 248.0 L602.6 247.6 L601.2 247.9 L599.8 248.0 L598.6 249.0 L598.0 248.9 L597.0 249.5 L596.1 250.1 L594.6 250.1 L593.2 250.1 L591.1 248.8 L590.1 248.4 L590.1 247.2 L591.1 247.0 L591.4 246.5 L591.4 245.8 L591.6 244.4 L591.4 243.2 L590.3 241.2 L590.0 240.1 L590.1 238.9 L589.3 237.6 L589.2 237.0 L588.3 236.2 L588.1 234.7 L587.0 233.1 L586.7 232.2 L587.6 233.1 L586.9 231.2 L587.9 231.8 L588.5 232.6 L588.4 231.6 L587.4 230.0 L587.3 229.4 L586.8 228.8 L587.0 227.6 L587.4 227.1 L587.7 226.1 L587.5 224.9 L588.3 223.5 L588.4 225.0 L589.3 223.7 L590.9 223.0 L591.9 222.1 L593.4 221.4 L594.3 221.2 L594.9 221.5 L596.5 220.7 L597.7 220.5 L598.0 220.1 L598.5 219.9 L599.6 220.0 L601.7 219.4 L602.8 218.5 L603.3 217.4 L604.5 216.4 L604.6 215.6 L604.6 214.5 L606.0 212.8 L606.9 214.5 L607.7 214.1 L607.0 213.2 L607.6 212.2 L608.5 212.7 L608.8 211.1 L609.9 210.2 L610.3 209.4 L611.3 209.0 L611.4 208.5 L612.3 208.7 L612.3 208.2 L613.2 207.9 L614.1 207.6 L615.6 208.6 L616.7 209.7 L618.0 209.8 L619.2 209.9 L618.8 208.8 L619.8 207.2 L620.7 206.7 L620.4 206.2 L621.2 205.1 L622.4 204.4 L623.5 204.6 L625.2 204.2 L625.1 203.2 L623.6 202.5 L624.7 202.3 L626.0 202.8 L627.1 203.6 L628.8 204.1 L629.4 203.9 L630.6 204.5 L631.8 203.9 L632.5 204.1 L633.0 203.7 L633.9 204.7 L633.4 205.8 L632.6 206.6 L631.9 206.6 L632.2 207.4 L631.6 208.4 L630.9 209.4 L631.0 210.0 L632.6 211.1 L634.1 211.7 L635.2 212.4 L636.6 213.6 L637.2 213.6 L638.2 214.1 L638.5 214.7 L640.4 215.4 L641.7 214.7 L642.1 213.7 L642.5 212.8 L642.8 211.7 L643.4 210.1 L643.1 209.1 L643.3 208.5 L643.0 207.4 L643.3 205.9 L643.7 205.5 L643.4 204.8 L643.9 203.8 L644.2 202.7 L644.3 202.1 L645.0 201.3 L645.6 202.3 L645.7 203.6 L646.2 203.8 L646.3 204.7 L647.0 205.7 L647.2 206.8 L647.1 207.5Z M684.2 201.0 L684.8 201.7 L683.4 201.6 L682.6 200.4 L683.8 200.9 L684.2 201.0Z M601.4 200.5 L600.6 200.5 L597.9 199.1 L599.8 198.7 L600.9 199.3 L601.6 199.9 L601.4 200.5Z M681.7 199.7 L680.9 199.8 L679.7 199.6 L679.3 199.3 L679.4 198.5 L680.7 198.8 L681.4 199.2 L681.7 199.7Z M683.4 199.2 L683.1 199.6 L681.6 197.8 L681.2 196.6 L681.8 196.6 L682.6 198.2 L683.4 199.2Z M608.9 200.3 L607.2 200.7 L606.9 200.5 L607.1 199.8 L608.0 198.6 L609.9 197.8 L610.2 197.3 L611.9 196.9 L613.3 196.8 L613.9 196.5 L614.7 196.8 L613.9 197.3 L611.9 198.2 L610.2 198.8 L608.9 200.3Z M595.8 196.2 L596.5 196.7 L597.8 196.6 L598.3 197.4 L595.9 197.8 L594.6 198.1 L593.5 198.1 L594.2 196.9 L595.3 196.9 L595.8 196.2Z M605.8 196.2 L605.5 197.3 L602.5 197.9 L599.8 197.6 L599.8 196.9 L601.4 196.5 L602.7 197.1 L604.0 196.9 L605.8 196.2Z M679.8 196.7 L679.8 197.1 L678.3 196.2 L677.2 195.5 L676.4 194.8 L676.7 194.6 L677.6 195.1 L679.3 196.0 L679.8 196.7Z M675.1 194.7 L674.7 194.8 L673.8 194.4 L673.0 193.5 L673.1 193.2 L674.3 194.0 L675.1 194.7Z M577.2 193.6 L581.1 193.8 L581.5 192.9 L585.2 193.9 L586.0 195.2 L589.0 195.6 L591.4 196.7 L589.1 197.5 L586.9 196.7 L585.1 196.8 L583.0 196.6 L581.2 196.2 L578.9 195.5 L577.4 195.3 L576.6 195.5 L572.9 194.7 L572.6 193.9 L570.7 193.7 L572.1 191.8 L574.5 191.9 L576.1 192.7 L577.0 192.8 L577.2 193.6Z M629.5 192.4 L628.4 193.8 L628.2 192.3 L628.6 191.6 L629.0 190.9 L629.5 191.5 L629.5 192.4Z M671.8 193.6 L671.2 193.8 L670.3 193.1 L669.5 191.8 L669.0 190.3 L669.3 190.1 L669.5 190.7 L670.1 191.1 L671.1 192.4 L672.0 193.1 L671.8 193.6Z M664.0 191.0 L662.9 191.1 L662.6 191.7 L661.5 192.2 L660.5 192.6 L659.4 192.6 L657.8 192.1 L656.6 191.5 L656.8 190.9 L658.6 191.2 L659.7 191.0 L660.0 190.1 L660.3 190.0 L660.5 191.1 L661.6 190.9 L662.2 190.2 L663.3 189.5 L663.1 188.3 L664.3 188.3 L664.7 188.6 L664.6 189.7 L664.0 191.0Z M614.5 186.9 L613.7 187.6 L612.4 187.2 L612.0 186.4 L614.0 186.3 L614.5 186.9Z M620.9 186.2 L621.7 187.7 L620.0 186.9 L618.3 186.7 L617.2 186.9 L615.8 186.8 L616.3 185.7 L618.7 185.6 L620.9 186.2Z M666.3 189.0 L665.7 189.5 L665.3 188.4 L664.8 187.6 L663.9 186.9 L662.8 186.1 L661.3 185.5 L661.9 185.0 L663.0 185.6 L663.6 186.0 L664.5 186.5 L665.3 187.3 L666.0 188.0 L666.3 189.0Z M628.3 182.3 L628.8 185.5 L630.9 186.7 L632.6 184.6 L634.9 183.4 L636.7 183.4 L638.4 184.1 L639.9 184.8 L642.0 185.2 L645.5 186.6 L649.2 187.7 L650.5 188.7 L651.7 189.8 L652.0 190.9 L655.3 192.2 L655.8 193.2 L653.9 193.4 L654.4 194.8 L656.2 196.1 L657.5 198.2 L658.6 198.1 L658.5 199.0 L660.1 199.4 L659.5 199.7 L661.6 200.6 L661.4 201.2 L660.1 201.3 L659.6 200.8 L657.8 200.6 L655.8 200.3 L654.3 199.0 L653.1 197.9 L652.1 196.1 L649.5 195.3 L647.8 195.8 L646.6 196.5 L646.8 198.0 L645.3 198.7 L644.1 198.3 L642.1 198.2 L640.3 196.6 L638.3 196.2 L637.8 196.8 L635.2 196.8 L636.1 195.2 L637.3 194.6 L636.8 192.5 L635.9 190.8 L632.0 189.1 L630.3 188.9 L627.3 187.1 L626.7 188.0 L626.0 188.2 L625.5 187.5 L625.5 186.6 L624.0 185.6 L626.1 184.9 L627.6 185.0 L627.4 184.4 L624.5 184.4 L623.7 183.2 L621.9 182.9 L621.0 181.9 L623.7 181.4 L624.8 180.7 L628.0 181.6 L628.3 182.3Z M610.5 177.2 L608.9 179.1 L607.4 179.5 L605.4 179.1 L602.1 179.2 L600.4 179.5 L600.1 181.0 L601.9 182.8 L602.9 181.9 L606.7 181.2 L606.5 182.2 L605.6 181.9 L604.8 183.0 L603.0 183.8 L604.9 186.4 L604.5 187.1 L606.3 189.4 L606.3 190.7 L605.3 191.3 L604.5 190.6 L605.4 188.9 L603.5 189.7 L603.0 189.1 L603.2 188.4 L601.8 187.2 L601.9 185.3 L600.6 185.9 L600.8 188.2 L600.9 191.1 L599.6 191.3 L598.7 190.8 L599.3 188.9 L599.0 187.0 L598.2 187.0 L597.5 185.6 L598.4 184.3 L598.6 182.7 L599.7 179.7 L600.1 178.9 L601.8 177.4 L603.3 178.0 L605.9 178.2 L608.2 178.2 L610.1 176.7 L610.5 177.2Z M617.4 177.7 L617.3 179.5 L616.2 179.3 L615.9 180.5 L616.8 181.6 L616.2 181.8 L615.4 180.5 L614.8 178.0 L615.2 176.4 L615.9 175.7 L616.0 176.7 L617.2 176.9 L617.4 177.7Z M571.6 191.7 L569.4 191.7 L567.7 190.1 L565.2 188.4 L564.3 187.2 L562.8 185.6 L561.8 184.1 L560.3 181.3 L558.5 179.6 L557.9 177.9 L557.2 176.4 L555.4 175.1 L554.4 173.4 L552.9 172.3 L550.8 170.1 L550.6 169.0 L551.9 169.1 L555.0 169.5 L556.7 171.5 L558.3 172.8 L559.4 173.7 L561.3 175.8 L563.3 175.8 L565.0 177.2 L566.2 178.9 L567.7 179.8 L566.9 181.4 L568.0 182.1 L568.7 182.2 L569.1 183.6 L569.8 184.7 L571.2 184.9 L572.2 186.1 L571.7 188.6 L571.6 191.7Z M595.7 176.3 L598.0 178.2 L595.6 178.4 L595.0 179.8 L595.0 181.6 L593.1 183.0 L593.1 185.0 L592.3 188.0 L592.0 187.3 L589.7 188.2 L588.9 187.0 L587.5 186.9 L586.5 186.2 L584.1 187.0 L583.4 186.0 L582.1 186.1 L580.4 185.9 L580.1 183.2 L579.1 182.6 L578.2 180.9 L577.9 179.2 L578.1 177.3 L579.3 176.0 L580.8 176.7 L582.3 176.3 L582.7 174.6 L583.6 174.2 L586.0 173.8 L587.4 172.2 L588.4 170.9 L589.2 170.2 L590.9 169.1 L592.4 167.7 L593.5 166.2 L594.3 166.1 L595.3 167.2 L595.4 168.0 L596.7 168.6 L598.4 169.2 L598.2 170.0 L596.9 170.1 L597.2 171.0 L595.8 171.7 L594.6 173.5 L596.1 175.4 L595.7 176.3Z M612.8 163.2 L613.0 164.5 L613.1 165.6 L612.4 167.5 L611.7 165.4 L610.7 166.4 L611.4 167.9 L610.8 168.8 L608.4 167.7 L607.9 166.2 L608.5 165.3 L607.2 164.3 L606.6 165.2 L605.6 165.1 L604.2 166.2 L603.8 165.6 L604.6 163.9 L605.9 163.4 L607.0 162.6 L607.7 163.5 L609.2 163.0 L609.5 162.1 L610.9 162.0 L610.8 160.5 L612.4 161.4 L612.6 162.4 L612.8 163.2Z M522.4 167.6 L520.7 168.1 L519.7 166.5 L519.4 163.6 L520.3 160.4 L521.7 161.5 L522.6 162.9 L523.6 165.0 L523.3 167.0 L522.4 167.6Z M238.1 159.8 L236.5 160.0 L236.1 159.8 L236.7 159.3 L236.6 158.5 L237.8 158.2 L238.2 158.3 L238.1 159.8Z M608.0 159.4 L607.2 160.1 L606.6 161.4 L606.0 162.0 L604.8 160.6 L605.2 160.0 L605.7 159.5 L605.9 158.2 L607.0 158.1 L606.7 159.5 L608.2 157.5 L608.0 159.4Z M597.0 161.4 L594.4 163.3 L595.3 161.9 L596.8 160.6 L598.0 159.2 L599.0 157.3 L599.4 158.9 L598.1 160.0 L597.0 161.4Z M603.8 156.2 L605.0 156.8 L606.2 156.8 L606.2 157.7 L605.3 158.5 L604.0 159.1 L603.9 158.2 L604.1 157.2 L603.8 156.2Z M611.0 155.7 L611.6 157.9 L610.0 157.4 L610.1 158.0 L610.6 159.3 L609.6 159.7 L609.5 158.3 L608.9 158.2 L608.6 157.0 L609.8 157.2 L609.8 156.4 L608.5 154.9 L610.5 154.9 L611.0 155.7Z M603.1 153.9 L602.5 155.6 L601.7 154.6 L600.6 153.1 L602.4 153.1 L603.1 153.9Z M602.6 143.0 L603.9 143.6 L604.5 143.0 L604.7 143.6 L604.3 144.4 L605.0 145.8 L604.5 147.5 L603.3 148.1 L603.0 149.7 L603.5 151.3 L604.5 151.6 L605.4 151.3 L607.9 152.4 L607.7 153.5 L608.4 154.0 L608.2 154.9 L606.6 153.9 L605.9 152.9 L605.3 153.6 L604.1 152.4 L602.3 152.7 L601.3 152.3 L601.4 151.5 L602.0 150.9 L601.4 150.5 L601.1 151.2 L600.1 150.1 L599.8 149.2 L599.8 147.3 L600.6 147.9 L600.8 144.8 L601.4 143.0 L602.6 143.0Z M228.8 143.5 L228.3 144.0 L226.8 144.0 L225.6 144.1 L225.5 143.3 L225.8 143.0 L227.4 143.0 L228.5 143.1 L228.8 143.5Z M206.2 144.3 L205.6 144.6 L204.5 144.3 L203.3 143.5 L203.6 143.1 L204.4 143.0 L204.9 143.0 L206.2 143.2 L207.3 143.7 L207.6 144.2 L206.2 144.3Z M214.8 140.3 L216.6 140.6 L216.8 140.2 L218.4 140.2 L219.6 140.8 L220.1 140.7 L220.5 141.4 L221.6 141.4 L221.5 142.0 L222.4 142.0 L223.4 142.8 L222.6 143.6 L221.7 143.2 L220.8 143.2 L220.1 143.1 L219.7 143.5 L219.0 143.6 L218.7 143.1 L218.0 143.4 L217.2 144.8 L216.7 144.5 L216.6 143.9 L215.3 143.6 L214.3 143.7 L213.1 143.6 L212.2 143.9 L211.1 143.3 L211.3 142.7 L213.1 142.9 L214.6 143.1 L215.3 142.7 L214.4 141.8 L214.4 141.0 L213.2 140.7 L213.6 140.2 L214.8 140.3Z M580.7 142.6 L579.0 143.6 L577.3 143.0 L577.3 141.3 L578.2 140.4 L580.4 139.8 L581.6 139.8 L582.0 140.6 L581.1 141.5 L580.7 142.6Z M48.9 141.8 L48.6 142.2 L48.1 141.9 L48.2 141.3 L47.9 140.6 L48.0 140.4 L48.3 140.0 L48.2 139.7 L48.3 139.5 L48.4 139.5 L49.2 139.8 L49.6 140.0 L49.9 140.3 L50.4 141.0 L50.3 141.1 L49.6 141.5 L48.9 141.8Z M47.8 138.7 L47.2 138.9 L46.8 138.4 L46.6 138.3 L46.6 138.1 L46.8 138.0 L47.5 138.2 L48.0 138.5 L47.8 138.7Z M46.5 137.6 L46.4 137.9 L45.3 137.8 L45.5 137.6 L46.5 137.6Z M44.7 137.4 L44.6 137.5 L44.4 137.4 L43.7 137.4 L43.5 136.9 L43.4 136.8 L43.9 136.6 L44.1 136.7 L44.7 137.4Z M41.3 136.0 L41.1 136.2 L40.4 135.9 L40.5 135.7 L40.8 135.5 L41.3 135.6 L41.3 136.0Z M200.6 134.5 L201.4 135.2 L203.3 135.0 L204.0 135.4 L205.7 136.7 L207.0 137.6 L207.6 137.6 L208.8 138.0 L208.7 138.5 L210.1 138.6 L211.6 139.4 L211.4 139.9 L210.1 140.2 L208.7 140.3 L207.4 140.1 L204.5 140.3 L205.8 139.2 L205.0 138.7 L203.7 138.5 L203.0 137.9 L202.6 136.8 L201.4 136.9 L199.6 136.3 L199.0 135.9 L196.4 135.6 L195.7 135.2 L196.4 134.7 L194.4 134.6 L193.0 135.7 L192.2 135.7 L191.9 136.2 L190.9 136.4 L190.1 136.2 L191.1 135.6 L191.5 134.9 L192.4 134.4 L193.5 134.0 L195.0 133.8 L195.5 133.6 L197.2 133.8 L198.8 133.8 L200.6 134.5Z M204.9 132.5 L204.4 132.6 L203.9 131.4 L203.2 130.9 L203.6 129.6 L204.2 129.7 L204.9 131.3 L204.9 132.5Z M602.4 134.4 L601.5 136.1 L600.4 134.4 L600.2 132.9 L601.4 130.9 L603.0 129.4 L603.9 130.0 L603.6 131.2 L602.4 134.4Z M204.4 126.8 L202.2 127.2 L202.0 126.4 L203.0 126.3 L204.3 126.3 L204.4 126.8Z M206.0 126.8 L205.7 128.2 L205.3 128.0 L205.3 126.9 L204.4 126.1 L204.4 125.9 L206.0 126.8Z M629.3 111.7 L629.5 112.4 L628.4 113.6 L627.6 113.0 L626.6 113.4 L626.0 114.6 L624.7 114.0 L624.7 113.1 L625.9 111.9 L627.0 112.1 L627.8 111.3 L629.3 111.7Z M429.2 108.7 L427.8 109.5 L428.0 109.9 L428.0 110.0 L426.0 110.9 L425.0 110.6 L424.5 109.8 L425.5 109.7 L425.6 109.7 L425.9 109.2 L427.3 109.3 L429.2 108.7Z M407.4 108.6 L408.5 109.3 L410.1 109.1 L411.5 109.3 L411.5 109.6 L412.6 109.4 L412.3 110.0 L409.4 110.2 L409.5 109.8 L407.0 109.4 L407.4 108.6Z M391.0 103.5 L390.3 105.1 L390.6 105.7 L390.2 106.8 L388.7 106.0 L387.7 105.8 L384.9 104.8 L385.1 103.7 L387.5 103.9 L389.5 103.7 L391.0 103.5Z M378.4 97.6 L379.6 99.0 L379.3 101.6 L378.4 101.5 L377.6 102.2 L376.9 101.7 L376.8 99.2 L376.3 98.1 L377.4 98.2 L378.4 97.6Z M642.0 105.7 L641.2 107.3 L641.5 108.3 L640.5 109.7 L637.9 110.7 L634.4 110.8 L631.6 113.1 L630.2 112.3 L630.2 110.8 L626.7 111.2 L624.3 112.2 L622.0 112.2 L624.0 113.7 L622.7 117.1 L621.4 117.9 L620.4 117.2 L620.9 115.4 L619.6 114.8 L618.8 113.4 L620.7 112.8 L621.8 111.5 L623.8 110.5 L625.2 109.1 L629.2 108.5 L631.4 108.9 L633.4 105.4 L634.8 106.3 L637.7 104.3 L638.9 103.6 L640.1 101.1 L639.8 98.9 L640.6 97.6 L642.7 97.2 L643.8 100.0 L643.8 101.6 L641.9 103.7 L642.0 105.7Z M379.1 95.7 L378.5 97.2 L377.6 96.8 L377.1 95.5 L377.5 94.7 L378.8 94.0 L379.1 95.7Z M647.8 91.7 L649.2 92.1 L650.6 91.2 L651.1 93.5 L648.1 94.0 L646.4 96.0 L643.2 94.6 L642.1 96.8 L639.9 96.9 L639.6 94.9 L640.6 93.3 L642.8 93.2 L643.3 90.5 L643.9 88.9 L646.3 91.0 L647.8 91.7Z M232.7 86.9 L234.1 87.2 L236.0 87.1 L235.0 87.9 L234.3 88.1 L231.7 87.2 L231.2 86.5 L232.0 85.9 L232.7 86.9Z M236.4 81.8 L235.4 81.8 L232.8 81.2 L231.0 80.3 L231.7 80.1 L234.3 80.6 L236.3 81.4 L236.4 81.8Z M113.0 83.0 L112.0 83.3 L108.7 82.3 L108.1 81.6 L106.3 80.9 L105.9 80.4 L103.9 80.0 L103.1 78.9 L103.3 78.5 L105.4 78.9 L106.6 79.2 L108.5 79.4 L109.2 80.1 L110.2 81.0 L112.2 81.9 L113.0 83.0Z M247.7 78.6 L246.4 80.4 L247.7 79.7 L249.1 80.1 L248.4 80.8 L250.1 81.4 L251.1 80.9 L253.0 81.5 L252.4 83.0 L253.8 82.6 L254.1 83.7 L254.7 84.9 L253.9 86.7 L253.0 86.8 L251.6 86.4 L252.1 84.7 L251.5 84.5 L249.2 86.2 L248.0 86.2 L249.4 85.2 L247.5 84.7 L245.3 84.9 L241.5 84.8 L241.2 84.2 L242.4 83.5 L241.5 83.0 L243.2 81.7 L245.3 78.6 L246.5 77.4 L248.3 76.7 L249.2 76.8 L248.8 77.4 L247.7 78.6Z M94.6 71.9 L96.5 71.8 L95.9 74.0 L97.6 75.6 L96.8 75.6 L95.6 74.7 L94.9 73.8 L93.9 73.2 L93.5 72.3 L93.6 71.7 L94.6 71.9Z M647.3 78.5 L649.3 82.0 L646.4 81.4 L645.1 84.3 L647.1 86.3 L647.0 87.7 L645.5 86.5 L644.2 88.1 L643.8 86.4 L644.0 84.4 L643.8 82.3 L644.3 80.8 L644.4 78.1 L643.2 76.1 L643.4 73.4 L645.2 72.5 L644.4 71.5 L645.3 71.3 L645.8 72.6 L646.5 74.5 L646.5 76.5 L647.3 78.5Z M346.4 75.5 L342.9 76.7 L340.0 76.4 L341.7 74.3 L340.6 72.2 L343.3 70.7 L344.9 69.7 L346.5 69.7 L348.7 70.9 L347.6 72.3 L347.9 73.7 L346.4 75.5Z M385.4 68.8 L384.2 70.4 L382.1 69.3 L381.8 68.4 L384.7 67.8 L385.4 68.8Z M54.0 65.8 L52.0 66.5 L51.0 66.0 L50.7 65.1 L52.5 64.4 L53.5 64.1 L54.9 64.2 L55.7 64.8 L54.0 65.8Z M354.0 62.7 L351.9 64.9 L353.9 64.6 L356.1 64.6 L355.6 66.3 L353.8 68.1 L355.8 68.2 L357.8 70.8 L359.1 71.1 L360.4 73.4 L360.9 74.1 L363.4 74.5 L363.1 75.8 L362.1 76.4 L362.9 77.4 L361.1 78.5 L358.4 78.4 L355.0 79.0 L354.1 78.6 L352.8 79.5 L350.9 79.3 L349.5 80.1 L348.4 79.7 L351.4 77.6 L353.2 77.1 L350.0 76.8 L349.5 76.0 L351.6 75.4 L350.5 74.3 L350.8 73.0 L353.8 73.2 L354.1 72.0 L352.7 70.8 L350.3 70.4 L349.8 69.9 L350.6 69.0 L349.9 68.4 L348.8 69.4 L348.7 67.5 L347.7 66.4 L348.4 64.4 L350.0 62.7 L351.6 62.9 L354.0 62.7Z M28.8 60.2 L27.6 60.5 L26.3 60.1 L25.1 59.6 L27.1 59.2 L28.6 59.4 L28.8 60.2Z M201.5 55.7 L200.7 56.7 L199.8 56.6 L199.3 56.0 L199.4 55.8 L200.1 55.2 L201.0 55.3 L201.5 55.7Z M196.2 54.6 L193.9 55.7 L192.5 55.6 L192.0 55.1 L193.5 54.2 L196.2 54.2 L196.2 54.6Z M16.5 52.4 L17.8 52.8 L19.0 52.6 L20.6 53.1 L22.6 53.4 L22.5 53.6 L20.9 54.0 L19.4 53.6 L18.7 53.2 L16.9 53.4 L16.4 53.2 L16.5 52.4Z M189.7 48.7 L190.0 49.6 L191.1 49.3 L192.2 49.8 L194.4 50.5 L196.7 51.1 L196.9 52.0 L198.4 51.9 L199.8 52.5 L198.0 53.2 L194.9 52.7 L193.8 51.8 L191.8 52.9 L189.0 53.9 L188.3 52.7 L185.6 52.9 L187.3 51.9 L187.5 50.4 L188.2 48.5 L189.7 48.7Z M331.0 47.1 L330.5 48.4 L332.8 49.7 L330.2 51.3 L324.4 52.6 L322.7 53.0 L320.1 52.7 L314.5 52.1 L316.4 51.2 L312.1 50.2 L315.6 49.8 L315.5 49.2 L311.3 48.8 L312.7 47.5 L315.7 47.2 L318.8 48.5 L321.9 47.4 L324.4 48.0 L327.7 46.9 L331.0 47.1Z M208.3 45.7 L206.0 45.8 L205.5 44.8 L206.4 43.7 L208.2 43.4 L209.8 44.0 L209.8 44.8 L209.6 45.1 L208.3 45.7Z M0.0 42.1 L4.9 43.6 L10.1 45.6 L10.0 46.8 L11.3 47.3 L10.9 45.9 L16.3 46.2 L20.2 48.0 L18.2 48.9 L14.9 49.1 L14.9 51.1 L14.1 51.5 L12.2 51.4 L10.7 50.7 L8.0 50.2 L7.6 49.3 L5.6 49.0 L3.3 49.2 L2.2 48.5 L2.6 47.8 L0.2 48.3 L1.1 49.2 L0.0 50.0 L0.0 50.0 L720.0 50.1 L717.4 50.9 L714.8 50.8 L716.6 51.8 L717.8 53.5 L718.7 54.0 L719.0 54.9 L718.5 55.4 L714.7 55.0 L709.1 56.5 L707.4 56.7 L704.3 58.1 L701.4 59.3 L700.7 60.2 L697.8 58.9 L692.6 60.4 L691.7 59.7 L689.8 60.5 L687.1 60.3 L686.4 61.6 L684.0 63.5 L684.1 64.3 L686.4 64.8 L686.1 67.7 L684.3 67.8 L683.4 69.4 L684.2 70.3 L680.7 71.3 L680.0 73.6 L677.1 74.1 L676.5 76.1 L673.6 78.0 L672.8 76.6 L672.0 73.7 L670.9 69.2 L671.8 66.5 L673.5 65.3 L673.6 64.3 L676.7 63.9 L680.3 61.4 L683.7 59.3 L687.3 57.7 L688.9 54.9 L686.5 55.1 L685.3 56.7 L680.2 58.9 L678.6 56.5 L673.4 57.1 L668.4 60.5 L670.1 61.7 L665.6 62.2 L662.5 62.4 L662.7 61.0 L659.6 60.7 L657.1 61.7 L651.0 61.3 L644.4 61.9 L637.9 65.8 L630.3 70.5 L633.4 70.8 L634.4 72.0 L636.3 72.5 L637.6 71.5 L639.8 71.6 L642.7 73.8 L642.8 75.5 L641.2 77.5 L641.0 79.9 L640.1 83.1 L637.1 86.0 L636.4 87.4 L633.7 89.7 L631.0 92.0 L629.7 93.2 L627.1 94.4 L625.8 94.4 L624.6 93.4 L621.9 94.9 L621.6 95.6 L620.8 95.4 L619.9 96.1 L619.3 96.8 L619.4 98.2 L618.4 98.7 L618.0 99.0 L617.3 99.6 L615.9 99.9 L615.1 100.5 L615.0 101.4 L614.8 101.6 L615.6 101.9 L616.7 102.8 L618.4 105.1 L618.9 106.4 L618.9 108.7 L618.2 109.8 L616.4 110.2 L614.8 111.0 L613.0 111.2 L612.7 110.1 L613.1 108.6 L612.2 106.5 L613.7 106.2 L612.4 104.5 L611.4 104.1 L611.1 104.5 L610.6 104.7 L610.5 104.3 L610.0 104.1 L609.4 103.8 L610.0 102.9 L610.4 102.7 L610.3 102.3 L610.8 101.2 L610.6 100.9 L609.5 100.7 L608.5 100.1 L605.7 100.7 L604.3 101.7 L602.1 102.2 L603.2 101.3 L602.8 100.5 L604.3 99.2 L603.3 98.1 L601.5 98.8 L599.3 100.2 L598.0 101.5 L596.1 101.6 L595.1 102.5 L596.1 103.9 L597.8 104.2 L597.8 105.1 L599.4 105.7 L601.6 104.3 L603.4 105.0 L604.7 105.1 L605.0 106.1 L602.2 106.7 L601.3 107.8 L599.3 108.8 L598.3 110.2 L600.5 111.3 L601.2 113.2 L602.5 115.1 L603.8 116.6 L603.8 118.1 L602.5 118.6 L603.0 119.7 L604.2 120.3 L603.9 122.0 L603.4 123.5 L602.3 123.7 L600.8 125.9 L599.2 128.5 L597.3 130.9 L594.6 132.7 L591.8 134.4 L589.5 134.7 L588.3 135.6 L587.6 134.9 L586.5 135.9 L583.7 136.9 L581.6 137.2 L580.9 139.3 L579.8 139.4 L579.3 138.0 L579.7 137.2 L577.0 136.6 L576.1 136.9 L573.4 138.6 L571.8 140.5 L571.3 141.9 L572.9 144.0 L574.7 146.6 L576.5 147.8 L577.8 149.4 L578.7 153.1 L578.4 156.7 L576.7 158.0 L574.4 159.3 L572.8 160.9 L570.3 162.8 L569.6 161.5 L570.2 160.2 L568.7 159.0 L567.0 158.7 L566.2 157.7 L565.2 155.6 L563.4 154.7 L561.7 154.7 L562.0 153.2 L560.2 153.2 L560.0 155.4 L559.0 158.3 L558.3 160.1 L558.4 161.5 L559.7 161.6 L560.6 163.4 L560.9 165.1 L562.0 166.3 L563.2 166.5 L564.3 167.6 L564.7 167.7 L565.9 168.9 L566.8 170.3 L566.9 171.6 L566.7 172.5 L566.9 173.2 L567.0 174.4 L567.7 175.0 L568.5 176.7 L568.5 177.4 L567.0 177.5 L565.1 176.1 L562.8 174.5 L562.5 173.5 L561.4 172.1 L561.1 170.5 L560.4 169.4 L560.6 167.9 L560.2 167.1 L559.4 166.3 L559.0 165.3 L558.0 164.2 L557.0 163.2 L556.7 164.4 L556.3 163.3 L556.5 162.1 L557.1 160.1 L556.9 158.6 L557.5 157.1 L556.9 155.9 L557.0 153.8 L556.2 152.7 L555.6 150.3 L555.2 147.8 L554.3 146.1 L553.0 147.1 L550.7 148.6 L549.6 148.4 L548.4 147.9 L549.1 145.4 L548.7 143.6 L547.1 141.3 L547.3 140.5 L546.2 140.3 L544.7 138.7 L544.2 137.6 L544.1 136.6 L543.7 135.6 L542.8 134.5 L541.0 134.4 L541.2 135.2 L540.5 136.3 L539.7 135.9 L539.4 136.3 L538.8 136.1 L538.1 135.9 L537.8 136.6 L536.4 136.6 L534.0 137.0 L534.1 138.5 L533.0 139.7 L530.1 141.0 L527.9 143.4 L526.4 144.7 L524.4 146.0 L524.4 146.9 L523.4 147.4 L521.6 148.1 L520.7 148.2 L520.0 149.7 L520.5 152.3 L520.6 154.0 L519.7 155.9 L519.7 159.3 L518.7 159.4 L517.8 160.9 L518.4 161.6 L516.6 162.1 L515.9 163.5 L515.1 164.1 L513.2 162.2 L512.3 159.4 L511.5 157.4 L510.8 156.4 L509.7 154.5 L509.2 152.0 L508.9 150.8 L507.1 148.0 L506.2 144.1 L505.6 141.6 L505.6 139.2 L505.3 137.3 L502.3 138.5 L500.9 138.2 L498.3 135.8 L499.3 135.1 L498.7 134.3 L496.4 132.6 L494.9 132.1 L494.3 130.7 L492.7 129.2 L489.1 129.5 L485.8 129.6 L483.0 129.8 L479.2 129.2 L477.1 128.8 L474.8 128.5 L473.9 126.1 L473.0 125.7 L471.4 126.1 L469.4 127.0 L467.0 126.4 L465.0 124.8 L463.0 124.3 L461.7 122.4 L460.2 119.7 L459.2 120.0 L457.9 119.4 L457.1 120.1 L456.0 120.0 L456.4 120.9 L456.2 121.4 L456.8 122.9 L457.6 124.6 L458.6 125.1 L458.9 125.8 L460.3 126.6 L460.4 127.4 L460.2 128.1 L460.5 128.8 L461.1 129.3 L461.3 130.0 L461.6 130.5 L461.5 129.0 L462.0 128.0 L462.6 127.8 L463.2 128.4 L463.2 129.6 L462.8 130.7 L463.2 131.5 L463.5 131.4 L463.6 132.0 L465.2 131.6 L466.8 131.7 L468.0 131.8 L469.4 130.4 L470.9 129.1 L472.1 127.9 L472.7 127.2 L473.0 127.4 L472.8 128.2 L472.5 128.6 L472.8 130.1 L473.7 131.5 L474.8 132.2 L476.3 132.5 L477.5 132.9 L478.4 134.0 L478.9 134.7 L479.6 134.9 L479.6 135.4 L478.9 136.6 L478.6 137.1 L477.7 137.8 L477.0 139.1 L476.1 139.0 L475.7 139.5 L475.3 140.5 L475.6 141.9 L475.4 142.1 L474.5 142.1 L473.2 142.9 L473.0 143.8 L472.6 144.2 L471.3 144.2 L470.5 144.7 L470.5 145.5 L469.6 146.1 L468.5 145.9 L467.1 146.6 L466.2 146.7 L464.8 147.2 L464.4 148.1 L464.3 148.8 L462.3 149.6 L459.1 150.6 L457.4 152.0 L456.5 152.1 L455.9 152.0 L454.7 152.8 L453.4 153.2 L451.8 153.3 L451.3 153.4 L450.8 153.9 L450.3 154.1 L450.0 154.6 L449.0 154.6 L448.3 154.8 L447.0 154.7 L446.4 153.6 L446.5 152.5 L446.2 151.9 L445.8 150.4 L445.2 149.6 L445.6 149.5 L445.4 148.6 L445.6 148.2 L445.6 147.3 L445.3 146.4 L444.7 145.8 L444.5 145.1 L443.5 144.3 L442.4 142.7 L441.9 141.0 L440.5 139.7 L439.6 139.3 L438.3 137.4 L438.0 136.0 L438.1 134.8 L437.0 132.6 L436.1 131.8 L435.0 131.4 L434.3 130.3 L434.4 129.8 L433.9 128.8 L433.3 128.3 L432.5 126.9 L431.3 125.2 L430.3 123.9 L429.3 123.9 L429.6 122.8 L429.7 122.1 L429.9 121.3 L429.8 121.0 L429.3 121.8 L428.9 123.3 L428.3 124.4 L427.8 124.7 L427.2 124.1 L426.3 123.2 L424.8 120.3 L424.6 120.5 L425.5 122.6 L426.7 124.6 L428.2 127.7 L428.9 128.8 L429.6 129.9 L431.4 132.1 L431.0 132.5 L431.1 133.8 L433.4 135.6 L433.7 136.0 L434.4 138.0 L433.9 138.3 L434.2 140.4 L435.0 142.8 L435.7 143.3 L436.8 144.0 L438.0 146.3 L438.5 148.2 L439.6 149.1 L442.4 151.0 L443.5 152.2 L444.6 153.3 L445.2 154.0 L446.2 154.6 L446.6 155.2 L446.6 156.0 L445.4 156.5 L446.3 157.1 L446.9 157.4 L447.3 158.3 L448.2 159.1 L449.2 159.1 L451.1 158.6 L453.3 158.4 L455.1 157.7 L456.0 157.6 L456.8 157.2 L457.9 157.2 L458.5 157.1 L459.5 156.8 L460.5 156.6 L461.5 156.0 L462.2 156.0 L462.3 156.5 L462.1 157.7 L462.1 158.7 L461.7 159.4 L461.1 161.6 L460.1 163.8 L458.9 166.4 L457.2 169.3 L455.5 171.6 L453.1 174.3 L451.1 175.9 L448.1 177.9 L446.3 179.4 L444.1 181.8 L443.6 182.9 L443.2 183.4 L441.8 184.2 L441.3 185.0 L440.5 185.1 L440.2 186.6 L439.6 187.4 L439.2 188.7 L438.4 189.4 L437.5 191.8 L437.6 193.0 L438.9 193.7 L438.9 194.2 L438.4 195.4 L438.5 196.0 L438.4 197.0 L439.1 198.2 L439.9 200.2 L440.6 200.6 L441.0 201.5 L440.9 203.5 L441.1 205.3 L441.2 208.4 L441.6 209.4 L441.0 210.8 L440.2 212.2 L438.9 213.4 L437.1 214.2 L434.8 215.2 L432.6 217.3 L431.8 217.7 L430.4 219.1 L429.6 219.6 L429.4 221.0 L430.4 222.5 L430.7 223.7 L430.8 224.3 L431.1 224.2 L431.1 226.1 L430.7 227.1 L431.2 227.4 L430.9 228.2 L430.1 229.0 L428.4 229.6 L426.0 230.7 L425.1 231.5 L425.3 232.3 L425.8 232.4 L425.7 233.5 L425.2 234.9 L424.9 236.6 L424.4 237.5 L423.0 238.5 L422.7 238.8 L421.8 239.8 L421.2 240.8 L420.1 242.3 L417.8 244.3 L416.4 245.5 L414.9 246.5 L412.8 247.2 L411.8 247.3 L411.6 247.9 L410.3 247.6 L409.4 248.0 L407.2 247.6 L406.0 247.8 L405.1 247.7 L403.1 248.5 L401.4 248.8 L400.1 249.6 L399.2 249.6 L398.4 248.9 L397.7 248.9 L396.8 248.0 L396.8 248.3 L396.5 247.7 L396.5 246.6 L395.9 245.2 L396.5 244.9 L396.4 243.3 L395.1 241.5 L394.1 239.8 L394.1 239.8 L392.7 237.2 L391.2 235.6 L390.4 234.2 L390.0 232.2 L389.5 230.8 L388.8 227.7 L388.8 225.3 L388.5 224.2 L387.7 223.4 L386.7 221.7 L385.7 219.3 L385.2 218.1 L383.6 216.1 L383.5 214.6 L383.3 213.3 L383.6 211.6 L384.2 209.8 L384.4 208.9 L385.0 207.1 L385.5 206.3 L386.6 205.0 L387.3 204.1 L387.5 202.6 L387.4 201.5 L386.8 200.7 L386.2 199.5 L385.8 198.3 L385.9 197.9 L386.5 197.1 L385.9 195.2 L385.5 193.9 L384.5 192.6 L384.6 192.2 L384.4 191.6 L383.8 190.1 L382.2 188.0 L380.1 185.9 L378.8 184.3 L377.6 182.2 L377.7 181.6 L378.1 180.9 L378.6 179.5 L379.0 178.0 L378.6 177.7 L379.3 175.4 L379.6 173.9 L378.8 172.5 L377.9 172.2 L377.5 171.3 L377.0 171.0 L377.0 170.5 L374.9 171.2 L374.2 171.1 L373.4 171.5 L371.8 171.5 L370.7 170.2 L370.1 168.8 L368.7 167.5 L367.1 167.5 L365.4 167.5 L363.7 167.7 L362.1 168.1 L359.0 169.3 L357.9 170.0 L356.1 170.6 L354.3 170.0 L353.4 170.0 L352.0 169.6 L350.7 169.7 L348.3 170.0 L346.9 170.6 L345.0 171.3 L344.6 171.3 L344.0 171.3 L342.0 170.3 L340.2 168.8 L338.5 167.7 L337.1 166.4 L336.6 166.3 L335.1 165.5 L334.1 164.4 L333.8 163.7 L333.5 162.2 L332.6 161.0 L331.9 160.2 L331.3 160.0 L330.8 159.6 L330.6 158.7 L330.3 158.2 L329.7 157.9 L328.7 157.1 L327.8 156.9 L327.4 156.4 L327.4 156.1 L326.8 155.7 L326.6 155.2 L326.3 153.7 L326.6 152.8 L325.7 151.3 L324.8 150.5 L325.6 150.2 L326.6 148.8 L327.1 147.7 L326.9 146.7 L327.5 145.7 L327.7 143.8 L327.5 141.8 L327.2 140.8 L327.4 139.8 L326.9 138.9 L325.9 138.0 L326.0 137.2 L326.1 136.2 L326.8 135.7 L327.5 134.6 L327.3 134.0 L328.0 132.6 L329.2 131.3 L329.8 131.0 L330.4 129.8 L330.4 128.7 L331.1 127.5 L332.4 126.8 L333.7 124.7 L334.8 123.9 L336.6 123.7 L338.2 122.3 L339.2 121.8 L340.9 120.1 L340.4 117.6 L341.1 115.9 L341.4 114.9 L342.7 113.5 L344.7 112.6 L346.2 111.8 L347.5 109.7 L348.1 108.5 L349.6 108.5 L350.8 109.3 L352.7 109.2 L354.8 109.6 L355.7 109.7 L357.6 108.6 L359.7 108.2 L361.0 107.4 L362.9 106.8 L366.3 106.4 L369.6 106.3 L370.6 106.6 L372.5 105.8 L374.7 105.8 L375.5 106.2 L376.8 106.1 L379.0 105.3 L380.4 105.5 L380.4 106.6 L382.1 105.8 L382.2 106.2 L381.2 107.2 L381.2 108.1 L381.9 108.6 L381.6 110.3 L380.3 111.3 L380.7 112.4 L381.7 112.5 L382.2 113.4 L383.0 113.7 L385.3 114.4 L386.2 114.2 L387.8 114.6 L390.5 115.5 L391.4 117.2 L393.2 117.6 L396.0 118.5 L398.2 119.5 L399.2 118.9 L400.1 118.0 L399.6 116.5 L400.3 115.5 L401.7 114.6 L403.1 114.3 L405.8 114.7 L406.5 115.6 L407.2 115.6 L407.9 116.0 L409.8 116.2 L410.3 116.9 L413.0 116.8 L414.9 117.4 L416.9 117.9 L417.8 118.3 L419.4 117.6 L420.2 117.1 L422.0 116.9 L423.4 117.1 L423.9 118.1 L424.4 117.5 L426.0 118.0 L427.5 118.1 L428.5 117.6 L429.1 116.9 L429.0 116.8 L429.5 115.9 L429.9 114.3 L430.2 113.8 L430.3 113.8 L431.0 112.2 L432.0 110.8 L432.0 110.7 L431.8 109.2 L432.3 108.4 L431.6 107.4 L432.3 106.7 L431.1 106.9 L429.4 106.4 L428.1 107.6 L425.0 107.8 L423.4 106.7 L421.2 106.6 L420.8 107.5 L419.4 107.7 L417.5 106.6 L415.3 106.7 L414.1 104.7 L412.6 103.6 L413.6 102.0 L412.3 101.1 L414.6 99.2 L417.6 99.1 L418.5 97.6 L422.3 97.8 L424.7 96.5 L427.0 96.0 L430.3 95.9 L433.8 97.3 L436.7 98.1 L439.0 97.8 L440.7 98.0 L443.1 96.9 L443.4 96.1 L442.9 94.7 L441.8 94.0 L440.6 93.7 L439.9 93.1 L437.4 91.4 L435.1 90.7 L433.4 89.5 L434.8 89.2 L436.5 87.5 L435.3 86.7 L438.3 85.9 L438.2 85.5 L436.4 85.8 L434.8 86.0 L433.5 86.6 L431.6 86.7 L429.9 87.5 L430.0 88.7 L431.0 89.2 L433.1 89.1 L432.7 89.8 L430.5 90.1 L427.8 91.3 L426.7 90.9 L427.1 89.9 L424.9 89.3 L425.3 89.0 L427.2 88.3 L426.6 87.8 L423.5 87.3 L423.3 86.6 L421.5 86.8 L420.8 87.9 L419.2 89.4 L419.3 89.9 L418.3 90.4 L417.7 90.2 L417.1 92.6 L416.1 93.4 L415.4 94.8 L416.0 96.0 L416.2 96.8 L418.0 97.4 L417.6 97.9 L415.2 98.0 L414.4 98.6 L412.7 99.7 L412.1 98.8 L412.1 98.4 L410.9 98.3 L409.8 98.1 L407.4 98.6 L408.8 99.8 L407.8 100.1 L406.7 100.1 L405.6 99.0 L405.3 99.5 L405.7 100.7 L406.7 101.6 L405.9 102.1 L407.1 103.0 L408.0 103.6 L408.1 104.7 L406.2 104.2 L406.8 105.2 L405.6 105.4 L406.3 107.2 L405.0 107.2 L403.3 106.3 L402.6 104.7 L402.2 103.4 L401.5 102.5 L400.4 101.3 L400.3 100.7 L400.0 100.6 L399.9 100.2 L398.8 99.5 L398.6 98.5 L398.8 97.2 L399.1 96.6 L398.7 96.2 L398.3 96.1 L397.8 95.4 L396.9 95.0 L395.0 94.3 L393.9 93.6 L392.0 93.0 L390.4 91.5 L390.8 91.4 L389.8 90.5 L389.8 89.8 L388.5 89.5 L387.9 90.4 L387.3 89.7 L387.4 89.0 L387.4 89.0 L387.9 88.8 L386.3 88.5 L384.7 89.2 L384.8 90.2 L384.5 90.8 L385.2 91.8 L387.1 92.8 L388.1 94.5 L390.3 96.1 L391.8 96.1 L392.3 96.5 L391.8 96.9 L393.6 97.6 L395.0 98.2 L396.8 99.3 L397.0 99.7 L396.6 100.4 L395.5 99.4 L393.7 99.1 L392.9 100.4 L394.3 101.1 L394.1 102.2 L393.3 102.3 L392.2 104.0 L391.4 104.2 L391.4 103.6 L391.8 102.5 L392.2 102.1 L391.4 100.9 L390.8 99.9 L390.0 99.7 L389.4 98.8 L388.1 98.4 L387.3 97.6 L385.8 97.5 L384.2 96.6 L382.4 95.3 L381.0 94.1 L380.4 92.2 L379.4 91.9 L377.8 91.3 L376.9 91.5 L375.7 92.5 L374.9 92.6 L373.1 93.7 L369.1 93.2 L366.2 93.9 L366.0 95.1 L366.1 96.2 L364.2 97.5 L361.6 98.0 L361.4 98.6 L360.2 99.8 L359.4 101.4 L360.2 102.5 L359.1 103.4 L358.6 104.7 L357.1 105.1 L355.7 106.7 L353.2 106.7 L351.3 106.6 L350.0 107.4 L349.2 108.1 L348.3 107.9 L347.5 107.3 L347.0 106.1 L345.1 105.8 L344.3 106.3 L343.2 106.0 L342.2 106.3 L342.5 104.7 L342.3 103.5 L341.4 103.3 L340.9 102.5 L341.1 101.2 L341.9 100.5 L342.0 99.7 L342.5 98.5 L342.4 97.6 L342.0 96.9 L341.9 96.2 L342.0 94.8 L341.2 93.9 L344.0 92.5 L346.5 92.9 L349.2 92.9 L351.3 93.2 L353.0 93.1 L356.2 93.2 L357.2 92.0 L357.6 88.0 L355.5 85.9 L354.1 84.9 L351.0 84.1 L350.8 82.6 L353.4 82.2 L356.8 82.7 L356.1 80.4 L358.0 81.3 L362.7 79.7 L363.3 78.1 L365.0 77.7 L366.6 77.3 L367.7 76.8 L369.4 73.8 L372.2 73.0 L373.8 73.0 L374.2 72.6 L375.9 72.5 L376.2 72.9 L377.6 72.0 L377.1 71.2 L377.1 70.1 L376.2 69.0 L376.2 66.9 L376.5 66.4 L377.1 65.8 L378.8 65.7 L379.6 65.1 L381.2 64.5 L381.1 65.6 L380.5 66.2 L380.7 66.8 L381.8 67.1 L381.3 67.8 L380.7 67.6 L379.3 69.1 L379.8 70.0 L379.9 70.8 L381.9 71.3 L381.9 72.0 L383.9 71.6 L385.0 71.1 L387.3 71.8 L388.2 72.5 L389.6 71.9 L392.7 71.0 L395.2 70.3 L397.2 70.6 L397.4 71.1 L399.3 71.1 L399.8 70.3 L402.5 69.6 L402.1 67.9 L402.2 66.4 L403.2 65.2 L405.0 64.5 L406.6 66.0 L408.2 65.9 L408.6 64.4 L408.9 63.2 L408.1 63.5 L406.9 62.8 L406.7 61.6 L409.2 61.1 L411.7 60.8 L413.9 61.1 L416.0 61.0 L418.2 59.9 L416.1 59.0 L412.5 59.2 L409.0 59.9 L405.7 60.3 L404.6 59.2 L402.6 58.6 L403.1 56.6 L402.1 54.8 L403.1 53.6 L404.9 52.4 L409.5 50.2 L410.8 49.8 L410.6 48.9 L407.8 48.0 L404.4 48.6 L402.4 49.9 L402.7 51.2 L399.6 52.8 L395.7 54.5 L394.2 57.3 L395.7 58.7 L397.6 59.8 L395.7 62.1 L393.7 62.6 L392.9 65.9 L391.8 67.8 L389.3 67.6 L388.2 69.2 L385.9 69.3 L385.2 67.4 L383.6 65.1 L382.1 62.3 L380.7 61.1 L376.8 63.4 L374.1 63.8 L371.3 62.8 L370.6 60.7 L370.0 56.1 L371.8 54.8 L377.1 53.1 L381.1 51.0 L384.7 48.2 L389.5 44.4 L392.9 42.9 L398.4 40.4 L402.8 39.5 L406.0 39.6 L409.1 37.9 L412.7 38.0 L416.3 37.6 L422.6 39.1 L420.0 39.6 L422.2 40.9 L424.3 40.2 L427.5 41.4 L433.0 41.9 L440.6 44.1 L442.1 45.1 L442.3 46.4 L440.0 47.5 L436.8 48.0 L427.8 46.5 L426.4 46.7 L429.6 48.2 L429.9 51.2 L432.5 51.8 L434.0 52.3 L434.3 51.3 L433.0 50.4 L434.4 49.7 L439.2 51.0 L440.9 50.5 L439.5 49.0 L444.2 47.0 L446.0 47.2 L447.9 47.9 L449.1 46.5 L447.4 45.3 L448.4 44.1 L446.9 42.9 L452.5 43.5 L453.6 44.6 L451.1 44.9 L451.1 46.0 L452.7 46.7 L455.8 46.2 L456.3 45.0 L460.5 44.0 L467.4 42.3 L468.9 42.4 L467.0 43.6 L469.5 43.8 L470.9 43.1 L474.6 43.1 L477.6 42.2 L479.9 43.4 L482.2 42.1 L480.1 41.0 L481.1 40.3 L487.0 40.9 L489.8 41.5 L497.0 43.8 L498.4 42.8 L496.3 41.7 L496.3 41.3 L493.9 41.1 L494.5 40.1 L493.4 38.6 L493.4 37.9 L497.1 36.1 L498.4 34.3 L499.9 33.9 L505.2 34.4 L505.6 35.6 L503.7 37.2 L504.9 37.8 L505.6 39.2 L505.1 42.0 L507.3 43.2 L506.5 44.5 L502.6 47.4 L504.8 47.7 L505.6 46.9 L507.8 46.4 L508.4 45.4 L510.1 44.5 L508.9 43.3 L509.9 42.0 L507.7 41.9 L507.2 40.7 L508.8 38.7 L506.2 37.1 L509.8 35.8 L509.3 34.3 L510.3 34.3 L511.4 35.4 L510.6 37.3 L512.7 37.7 L511.8 36.3 L515.2 35.5 L519.3 35.4 L523.0 36.5 L521.2 34.8 L521.0 32.7 L524.5 32.3 L529.3 32.4 L533.6 32.1 L532.0 31.1 L534.3 29.8 L536.6 29.7 L540.5 28.7 L545.8 28.5 L546.5 27.9 L551.7 27.7 L553.4 28.2 L557.8 27.1 L561.5 27.1 L562.1 26.3 L564.0 25.4 L568.7 24.6 L572.1 25.3 L569.4 25.7 L573.9 26.1 L574.5 27.0 L576.3 26.6 L582.2 26.6 L586.7 27.6 L588.3 28.3 L587.8 29.3 L585.6 29.9 L580.3 31.0 L578.8 31.6 L581.3 31.9 L584.2 32.4 L586.0 32.0 L587.1 33.3 L587.9 32.8 L591.1 32.5 L597.6 32.8 L598.0 33.8 L606.4 34.1 L606.5 32.5 L610.8 32.9 L614.0 32.9 L617.2 33.9 L618.1 35.2 L616.9 36.0 L619.4 37.6 L622.6 38.4 L624.5 36.3 L627.7 37.2 L631.1 36.7 L635.0 37.3 L636.5 36.7 L639.7 37.0 L638.3 35.2 L640.9 34.3 L659.0 35.6 L660.7 36.8 L665.9 38.3 L674.0 37.9 L678.0 38.3 L679.7 39.1 L679.4 40.6 L681.9 41.1 L684.6 40.7 L688.1 40.7 L691.9 41.1 L695.7 40.8 L699.2 42.6 L701.6 42.0 L700.0 40.7 L700.9 39.8 L707.3 40.4 L711.4 40.2 L717.2 41.2 L0.0 42.1Z M458.2 97.4 L459.2 98.9 L460.2 98.9 L460.8 99.5 L459.1 99.6 L458.8 101.2 L458.5 101.9 L457.7 102.4 L457.8 103.4 L458.4 104.8 L460.3 105.3 L461.7 106.3 L464.5 106.6 L467.7 106.1 L467.8 105.6 L467.5 104.2 L467.8 102.1 L466.2 101.4 L466.7 100.0 L465.4 99.9 L465.8 98.2 L467.7 98.7 L469.5 98.1 L468.0 96.9 L467.4 95.8 L465.8 96.3 L465.6 97.7 L465.0 96.4 L464.9 95.9 L465.4 95.1 L465.0 94.4 L462.7 93.7 L461.8 91.9 L460.7 91.4 L460.6 90.8 L462.6 91.0 L462.6 89.5 L464.3 89.2 L466.1 89.5 L466.4 87.5 L466.1 86.3 L464.1 86.4 L462.4 85.9 L460.1 86.8 L458.2 87.2 L457.3 88.4 L455.4 88.7 L453.4 90.8 L455.2 92.7 L455.0 94.0 L457.2 96.4 L458.2 97.4Z M168.7 41.8 L167.5 42.5 L164.8 41.9 L163.1 42.1 L160.4 41.2 L162.2 40.6 L163.6 39.7 L165.7 40.3 L166.9 40.6 L167.5 41.0 L168.7 41.8Z M0.0 37.0 L720.0 38.3 L717.8 38.4 L717.5 37.8 L0.0 37.0Z M0.0 37.0 L0.3 36.9 L2.0 36.9 L4.8 37.5 L4.7 37.7 L2.6 38.2 L0.0 38.3 L0.0 37.0Z M178.9 41.0 L178.9 43.1 L181.6 41.5 L184.0 42.8 L183.4 44.3 L185.3 45.6 L187.4 44.2 L188.8 42.4 L189.0 40.2 L191.8 40.4 L194.8 40.7 L197.4 41.7 L197.6 42.7 L196.1 43.7 L197.5 44.8 L197.2 45.8 L193.3 47.2 L190.5 47.5 L188.5 46.9 L187.9 47.9 L185.9 49.6 L185.4 50.4 L183.0 51.8 L180.2 51.9 L178.6 52.8 L178.5 54.1 L176.1 54.3 L173.7 56.0 L171.5 58.2 L170.7 59.8 L170.6 62.1 L173.6 62.4 L174.5 64.3 L175.4 65.8 L178.2 65.4 L181.9 66.3 L183.9 67.1 L185.4 68.0 L187.9 68.6 L190.0 69.4 L193.3 69.5 L195.5 69.7 L195.1 71.4 L195.7 73.4 L197.2 75.7 L200.2 77.6 L201.7 76.9 L202.8 74.9 L201.8 71.7 L200.3 70.7 L203.5 69.7 L205.8 68.3 L206.9 66.9 L206.8 65.6 L205.4 63.9 L203.0 62.4 L205.3 60.3 L204.5 58.5 L203.8 55.4 L205.2 54.9 L208.6 55.4 L210.7 55.6 L212.3 55.1 L214.2 55.8 L216.6 56.9 L217.3 57.7 L220.8 57.9 L220.8 59.6 L221.4 62.1 L223.3 62.4 L224.7 63.6 L227.6 62.5 L229.5 60.3 L230.8 59.3 L232.4 61.1 L235.0 63.7 L237.2 66.1 L236.4 67.3 L239.1 68.4 L240.9 69.6 L244.0 70.1 L245.3 70.7 L246.1 72.4 L247.7 72.7 L248.5 73.5 L248.6 75.7 L247.2 76.5 L245.7 77.2 L242.4 77.9 L239.9 79.5 L236.6 79.8 L232.3 79.4 L229.3 79.4 L227.2 79.5 L225.5 81.0 L223.0 81.9 L220.1 84.5 L217.8 86.4 L219.5 86.0 L222.7 83.4 L226.9 81.7 L229.9 81.5 L231.7 82.5 L229.8 83.9 L230.4 86.0 L231.1 87.5 L233.7 88.5 L237.0 88.2 L239.0 86.0 L239.1 87.4 L240.4 88.2 L237.9 89.5 L233.5 90.7 L231.5 91.5 L229.3 92.9 L227.8 92.8 L227.7 91.1 L231.2 89.4 L227.9 89.5 L225.7 89.7 L226.1 90.4 L223.9 91.3 L221.9 92.0 L219.8 92.6 L218.6 93.9 L218.4 94.3 L218.3 95.3 L219.0 96.4 L219.8 96.4 L219.6 95.7 L220.2 96.2 L220.1 96.7 L218.7 97.0 L217.8 97.0 L216.3 97.4 L215.4 97.5 L214.2 97.6 L212.6 98.1 L215.5 97.8 L216.1 98.1 L213.3 98.7 L212.0 98.7 L212.1 98.5 L211.5 99.1 L212.1 99.1 L211.6 100.6 L210.2 102.1 L210.0 101.6 L209.6 101.5 L208.9 101.0 L209.4 102.1 L209.8 102.4 L209.9 103.2 L209.2 104.0 L208.1 105.6 L207.9 105.5 L208.6 104.1 L207.5 103.4 L207.3 101.7 L206.9 102.6 L207.3 103.8 L206.1 103.5 L207.4 104.2 L207.5 106.1 L208.1 106.2 L208.3 106.9 L208.5 108.9 L207.3 110.4 L205.2 111.0 L203.9 112.1 L202.9 112.3 L201.9 113.0 L201.6 113.7 L199.4 115.0 L198.3 115.9 L197.3 117.1 L197.0 118.5 L197.4 119.9 L198.0 121.6 L198.9 123.1 L198.9 123.9 L199.9 126.2 L199.8 127.6 L199.7 128.4 L199.2 129.6 L198.6 129.8 L197.7 129.6 L197.3 128.7 L196.6 128.3 L195.5 126.5 L194.6 125.0 L194.3 124.2 L194.7 122.9 L194.1 121.8 L192.6 120.1 L191.8 119.8 L189.8 120.7 L189.4 120.6 L188.5 119.7 L187.2 119.2 L184.9 119.5 L183.2 119.2 L181.6 119.4 L180.8 119.6 L181.2 120.2 L181.1 121.0 L181.6 121.4 L181.2 121.7 L180.4 121.4 L179.7 121.8 L178.2 121.7 L176.7 120.6 L175.0 120.9 L173.6 120.4 L172.3 120.6 L170.6 121.0 L168.8 122.5 L166.8 123.4 L165.7 124.3 L165.3 125.2 L165.2 126.6 L165.3 127.6 L165.7 128.3 L165.7 128.3 L165.7 128.3 L164.9 130.0 L164.6 131.5 L164.4 134.1 L164.3 135.1 L164.6 136.2 L165.2 137.2 L165.6 138.7 L166.9 140.2 L167.4 141.4 L168.2 142.3 L170.3 142.9 L171.1 143.7 L172.9 143.2 L174.4 142.9 L175.9 142.6 L177.2 142.2 L178.5 141.4 L178.9 140.3 L179.1 138.6 L179.4 138.0 L180.8 137.5 L182.9 137.0 L184.7 137.1 L185.9 136.9 L186.4 137.3 L186.3 138.3 L185.2 139.5 L184.8 140.7 L185.1 141.1 L184.8 141.9 L184.3 143.5 L183.8 143.0 L183.4 143.0 L183.4 143.3 L183.8 143.3 L183.8 143.8 L183.4 144.7 L183.6 145.0 L183.4 145.7 L183.5 145.9 L183.3 146.9 L182.9 147.5 L182.5 147.5 L182.1 148.2 L182.8 148.6 L183.0 148.3 L183.6 148.5 L183.8 148.6 L184.2 148.3 L184.8 148.2 L185.0 148.4 L185.3 148.3 L186.2 148.5 L187.1 148.4 L187.8 148.2 L188.0 148.0 L188.6 148.1 L189.1 148.2 L189.6 148.2 L190.0 148.0 L190.9 148.3 L191.3 148.3 L191.9 148.7 L192.5 149.2 L193.2 149.5 L193.7 150.0 L193.5 150.2 L193.4 150.6 L193.6 151.4 L193.2 152.1 L193.0 152.9 L192.9 153.7 L193.0 154.3 L193.1 155.2 L192.7 155.4 L192.6 156.2 L192.7 156.7 L192.3 157.3 L192.4 157.8 L192.7 158.1 L193.2 159.2 L194.0 160.0 L194.9 160.9 L195.6 161.6 L195.6 162.0 L196.4 162.1 L196.6 161.9 L197.1 162.4 L198.1 162.3 L199.0 161.8 L200.2 161.4 L200.9 160.8 L202.0 160.9 L201.9 161.1 L203.0 161.2 L203.9 161.5 L204.5 162.1 L205.3 162.7 L206.3 162.7 L207.8 161.3 L208.7 161.1 L208.7 160.5 L209.0 158.8 L210.2 157.8 L211.4 157.8 L211.6 157.4 L213.2 157.5 L214.7 156.5 L215.5 156.1 L216.5 155.1 L217.2 155.2 L217.7 155.8 L217.3 156.4 L217.3 156.9 L216.1 157.2 L216.8 158.1 L216.7 159.1 L215.9 160.3 L216.6 161.9 L217.5 161.7 L217.9 160.3 L217.3 159.6 L217.2 158.1 L219.7 157.2 L219.4 156.3 L220.1 155.7 L220.8 157.1 L222.2 157.1 L223.5 158.2 L223.6 158.9 L225.4 158.9 L227.5 158.7 L228.7 159.6 L230.2 159.8 L231.3 159.2 L231.4 158.7 L233.8 158.6 L236.2 158.6 L234.5 159.2 L235.2 160.1 L236.8 160.3 L238.3 161.2 L238.7 162.8 L239.7 162.8 L240.5 163.3 L241.8 164.0 L243.0 165.3 L243.1 166.3 L243.8 166.4 L244.9 167.4 L245.7 168.1 L248.1 168.5 L248.3 168.1 L249.9 167.9 L252.1 168.5 L252.8 168.7 L254.2 169.2 L256.4 170.9 L256.7 171.7 L257.4 171.6 L257.9 172.7 L259.0 176.2 L260.1 176.5 L260.1 177.9 L258.6 179.6 L259.2 180.2 L262.8 180.5 L262.8 182.5 L264.4 181.2 L266.9 181.9 L270.2 183.1 L271.2 184.3 L270.8 185.4 L273.2 184.8 L277.1 185.8 L280.0 185.7 L283.0 187.4 L285.6 189.6 L287.1 190.2 L288.8 190.3 L289.5 190.9 L290.2 193.5 L290.5 194.7 L289.7 198.0 L288.7 199.3 L285.9 202.1 L284.6 204.3 L283.2 206.1 L282.7 206.1 L282.1 207.6 L282.2 211.3 L281.7 214.4 L281.5 215.7 L280.8 216.5 L280.5 219.2 L278.4 221.8 L278.1 223.9 L276.5 224.7 L276.0 225.9 L273.8 225.9 L270.7 226.7 L269.3 227.6 L267.1 228.2 L264.7 229.8 L263.0 231.8 L262.7 233.2 L263.0 234.4 L262.7 236.4 L262.2 237.3 L260.8 238.4 L258.6 242.0 L256.8 243.6 L255.5 244.5 L254.6 246.4 L253.3 247.5 L252.4 248.8 L250.1 249.9 L248.7 249.5 L247.6 249.7 L245.7 248.9 L244.4 248.9 L243.1 247.8 L243.0 248.9 L245.6 250.6 L245.3 252.0 L246.5 252.8 L246.4 253.8 L244.5 256.4 L241.5 257.4 L237.5 257.9 L235.3 257.7 L235.8 258.8 L235.3 260.3 L235.7 261.4 L234.5 262.1 L232.5 262.3 L230.5 261.6 L229.8 262.1 L230.0 264.1 L231.4 264.7 L232.5 264.1 L233.1 265.1 L231.2 265.7 L229.6 267.0 L229.3 269.0 L228.9 270.1 L227.0 270.1 L225.4 271.1 L224.8 272.6 L226.8 274.1 L228.7 274.5 L228.0 276.3 L225.7 277.4 L224.4 279.7 L222.5 280.5 L221.7 281.5 L222.4 283.5 L223.7 284.7 L222.9 284.6 L221.1 284.6 L220.1 285.1 L218.3 285.8 L218.0 287.7 L217.1 287.7 L214.9 287.1 L212.6 285.7 L210.1 284.5 L209.5 283.3 L210.0 282.1 L209.0 280.8 L208.8 277.3 L209.6 275.4 L211.7 273.9 L208.7 273.3 L210.6 271.5 L211.3 268.2 L213.5 268.9 L214.6 264.8 L213.2 264.2 L212.6 266.7 L211.3 266.5 L212.0 263.6 L212.6 259.9 L213.6 258.5 L213.0 256.6 L212.8 254.3 L213.7 254.2 L214.9 251.0 L216.3 247.8 L217.1 244.8 L216.7 241.8 L217.3 240.2 L217.0 237.7 L218.2 235.3 L218.6 231.4 L219.2 227.3 L219.8 222.8 L219.7 219.5 L219.3 216.7 L217.2 215.5 L217.1 214.7 L213.1 212.7 L209.5 210.5 L208.0 209.3 L207.2 207.6 L207.5 207.1 L205.8 204.4 L203.8 200.8 L201.9 196.8 L201.1 195.9 L200.5 194.4 L198.9 193.1 L197.5 192.3 L198.1 191.4 L197.2 189.5 L197.8 188.1 L199.4 186.8 L200.5 185.3 L200.0 184.4 L199.3 185.4 L198.1 184.5 L198.5 183.9 L198.1 182.1 L198.8 181.8 L199.2 180.6 L200.0 179.3 L199.8 178.5 L200.9 178.0 L202.3 177.2 L202.0 176.6 L202.8 176.5 L202.7 175.5 L203.1 174.7 L204.1 174.6 L205.0 173.4 L205.7 172.3 L205.0 171.8 L205.4 170.7 L204.9 168.8 L205.4 168.3 L205.0 166.6 L204.2 165.6 L203.6 165.0 L203.1 163.9 L203.6 163.4 L203.1 163.2 L202.8 162.6 L201.8 162.0 L200.9 162.1 L200.5 162.8 L199.7 163.3 L199.2 163.4 L199.0 163.8 L200.0 164.9 L199.4 165.2 L199.2 165.5 L198.2 165.6 L197.9 164.4 L197.6 164.7 L197.0 164.6 L196.6 163.8 L195.7 163.6 L195.2 163.4 L194.4 163.4 L194.3 163.9 L194.1 163.6 L193.0 163.1 L192.6 162.7 L192.8 162.3 L192.7 161.9 L192.2 161.4 L191.4 161.0 L190.7 160.8 L190.6 160.2 L190.0 159.8 L190.2 160.4 L189.8 160.9 L189.3 160.3 L188.7 160.1 L188.4 159.7 L188.4 159.1 L188.7 158.5 L188.1 158.2 L188.6 157.8 L187.9 157.2 L186.9 156.4 L186.5 155.7 L185.7 155.1 L184.7 154.2 L184.9 153.9 L185.2 154.2 L185.4 154.0 L185.0 153.4 L184.4 153.2 L184.2 153.7 L183.0 153.7 L182.3 153.5 L181.5 153.1 L180.4 153.0 L179.8 152.5 L178.8 152.2 L177.5 152.1 L176.6 151.7 L175.5 150.9 L173.3 148.8 L172.2 148.1 L170.6 147.6 L169.5 147.7 L167.9 148.5 L166.9 148.7 L165.5 148.2 L164.0 147.8 L162.1 146.9 L160.6 146.6 L158.3 145.7 L156.7 144.7 L156.2 144.2 L155.0 144.0 L153.0 143.4 L152.2 142.5 L150.0 141.4 L149.0 140.1 L148.5 139.1 L149.2 138.9 L149.0 138.4 L149.5 137.8 L149.5 137.2 L148.8 136.3 L148.6 135.5 L147.9 134.5 L146.2 132.5 L144.2 130.9 L143.2 129.7 L141.5 128.8 L141.1 128.3 L141.4 127.1 L140.4 126.6 L139.2 125.7 L138.7 124.3 L137.6 124.1 L136.5 123.1 L135.5 122.1 L135.5 121.5 L134.4 120.0 L133.7 118.4 L133.7 117.7 L132.3 116.9 L131.6 117.0 L130.4 116.4 L130.1 117.2 L130.5 118.2 L130.7 119.7 L131.3 120.5 L132.8 121.9 L133.2 122.3 L133.5 122.5 L133.7 123.2 L134.1 123.1 L134.5 124.4 L135.1 124.9 L135.5 125.7 L136.8 126.7 L137.4 128.5 L138.0 129.4 L138.6 130.3 L138.7 131.4 L139.7 131.5 L140.5 132.4 L141.2 133.3 L141.1 133.6 L140.3 134.4 L139.9 134.4 L139.4 133.1 L138.1 132.0 L136.7 131.0 L135.6 130.5 L135.7 129.1 L135.4 128.0 L134.4 127.4 L133.1 126.5 L132.8 126.7 L132.3 126.2 L131.1 125.7 L129.9 124.6 L130.0 124.4 L130.9 124.5 L131.6 123.8 L131.7 122.9 L130.1 121.4 L129.0 120.9 L128.2 119.6 L127.5 118.3 L126.6 116.7 L125.7 114.9 L125.4 113.9 L124.1 112.8 L123.2 112.5 L123.0 111.9 L121.8 111.8 L121.1 111.3 L119.3 111.1 L118.8 110.8 L118.5 109.7 L116.6 107.7 L114.9 104.9 L115.0 104.4 L114.1 103.8 L112.5 102.1 L112.3 100.5 L111.2 99.4 L111.6 97.7 L111.6 96.0 L110.9 94.5 L111.7 92.6 L112.2 89.0 L111.8 86.3 L111.2 84.6 L110.6 83.6 L110.9 83.2 L113.8 83.9 L114.8 85.8 L115.3 85.3 L115.0 83.6 L114.3 82.0 L114.0 82.0 L110.2 80.0 L108.7 79.2 L105.1 78.3 L104.0 76.6 L104.3 75.3 L101.7 74.5 L101.4 72.9 L99.0 71.4 L98.9 70.4 L97.8 69.6 L96.1 69.0 L95.5 67.3 L92.9 65.6 L91.8 63.8 L89.9 63.6 L86.7 63.6 L84.4 63.0 L80.3 60.9 L78.4 60.5 L74.9 59.8 L72.1 60.0 L68.1 59.1 L65.8 58.2 L63.5 58.7 L64.0 60.0 L62.9 60.2 L60.5 60.6 L58.8 61.3 L56.6 61.7 L56.3 60.5 L57.2 58.5 L59.3 57.9 L58.8 57.4 L56.2 58.5 L54.8 59.9 L52.0 61.3 L53.4 62.3 L51.5 63.7 L49.4 64.5 L47.4 65.2 L46.9 66.0 L43.8 67.1 L43.1 68.0 L40.8 68.9 L39.4 68.7 L37.6 69.3 L35.5 70.0 L33.9 70.6 L30.4 71.2 L30.1 70.9 L32.3 69.9 L34.3 69.3 L36.4 68.2 L38.9 68.0 L39.9 67.2 L42.6 66.0 L43.1 65.6 L44.6 64.9 L44.9 63.3 L45.9 62.2 L43.6 62.8 L43.0 62.4 L41.9 63.2 L40.6 62.1 L40.0 62.9 L39.3 61.9 L37.3 62.7 L36.1 62.7 L35.9 61.5 L36.3 60.7 L35.0 60.0 L32.4 60.4 L30.7 59.5 L29.3 59.0 L29.3 57.9 L27.8 57.0 L28.5 55.8 L30.2 54.7 L30.9 53.7 L32.5 53.6 L33.9 53.9 L35.5 52.9 L36.9 53.1 L38.5 52.5 L38.1 51.6 L37.0 51.2 L38.4 50.4 L37.2 50.4 L35.1 50.9 L34.5 51.3 L32.9 50.9 L30.1 51.1 L27.2 50.6 L26.3 49.8 L23.8 48.7 L26.6 47.8 L31.1 46.8 L32.7 46.8 L32.4 47.8 L36.6 47.8 L35.0 46.5 L32.6 45.8 L31.1 44.8 L29.2 43.9 L26.5 43.3 L27.6 42.2 L31.1 42.2 L33.7 41.3 L34.1 40.3 L36.2 39.3 L38.1 39.1 L41.9 38.2 L43.8 38.4 L46.8 37.3 L49.9 37.7 L51.3 38.6 L52.2 38.2 L55.6 38.3 L55.5 38.8 L58.5 39.1 L60.6 38.9 L64.8 39.6 L68.6 39.8 L70.2 40.0 L72.8 39.7 L75.9 40.3 L78.0 40.6 L81.8 41.1 L84.9 42.0 L87.0 42.2 L88.7 41.4 L91.2 40.7 L94.1 41.0 L97.1 40.1 L100.4 39.6 L101.8 40.4 L103.3 40.0 L103.7 39.0 L105.1 39.2 L108.5 41.0 L111.1 39.7 L111.4 41.2 L113.9 40.9 L114.6 40.3 L117.1 40.4 L120.1 41.2 L124.8 42.0 L127.5 42.3 L129.5 42.2 L132.2 43.2 L129.4 44.2 L133.0 44.6 L138.4 44.4 L140.1 44.0 L142.2 45.2 L144.4 44.2 L142.4 43.4 L143.7 42.7 L146.1 42.6 L147.7 42.4 L149.3 42.9 L151.3 44.0 L153.6 43.8 L157.1 44.7 L160.2 44.4 L163.1 44.4 L162.9 43.2 L164.7 42.8 L167.8 43.5 L167.7 45.4 L169.0 43.8 L170.6 43.9 L171.5 41.9 L169.4 40.6 L167.1 39.8 L167.2 37.6 L169.6 36.2 L172.2 36.5 L174.2 37.4 L177.0 39.6 L175.2 40.6 L178.9 41.0Z M131.7 33.8 L130.7 34.7 L135.1 34.1 L137.9 35.1 L140.2 34.1 L142.0 34.7 L143.6 36.7 L144.6 35.9 L143.2 33.8 L145.0 33.5 L147.0 33.8 L149.2 34.7 L150.5 36.6 L151.1 38.0 L154.4 39.0 L158.0 39.9 L157.8 40.8 L154.5 41.0 L155.8 41.8 L155.1 42.5 L151.5 42.2 L148.1 41.6 L145.8 41.8 L142.0 42.4 L136.1 42.8 L133.4 42.9 L132.3 42.0 L129.6 41.4 L127.8 41.7 L125.3 40.1 L126.6 39.9 L129.7 39.5 L132.6 39.6 L135.2 39.3 L131.3 38.8 L127.0 39.0 L124.2 38.9 L123.1 38.2 L127.8 37.4 L124.7 37.4 L121.2 36.9 L122.9 35.4 L124.3 34.6 L129.6 33.4 L131.7 33.8Z M151.0 33.2 L149.2 34.5 L146.1 33.1 L146.8 32.8 L149.5 32.7 L151.0 33.2Z M207.3 33.8 L207.5 34.3 L205.4 34.3 L203.2 34.2 L201.0 34.5 L200.5 34.4 L198.2 33.3 L198.3 32.6 L199.3 32.5 L203.9 32.7 L207.3 33.8Z M186.9 33.7 L188.5 34.9 L190.3 33.3 L195.4 32.5 L198.8 34.6 L198.5 35.9 L202.5 35.3 L204.4 34.5 L208.8 35.5 L211.5 36.5 L211.8 37.3 L215.5 36.9 L217.6 38.2 L222.4 39.0 L224.2 39.8 L226.1 41.6 L222.4 42.6 L227.1 43.9 L230.3 44.3 L233.2 46.1 L236.3 46.3 L235.7 47.7 L232.2 50.0 L229.7 49.1 L226.6 47.2 L224.0 47.5 L223.7 48.6 L225.8 49.8 L228.5 50.7 L229.4 51.2 L230.7 53.2 L230.0 54.7 L227.5 54.1 L222.4 52.5 L225.3 54.2 L227.3 55.4 L227.7 56.1 L222.2 55.3 L218.0 54.2 L215.5 53.2 L216.2 52.6 L213.2 51.6 L210.3 50.6 L210.4 51.2 L204.6 51.5 L202.9 50.9 L204.2 49.4 L208.0 49.3 L212.1 49.1 L211.4 48.4 L212.1 47.4 L214.7 45.4 L214.1 44.5 L213.4 43.9 L210.3 42.9 L206.3 42.2 L207.5 41.7 L205.4 40.5 L203.7 40.3 L202.1 39.7 L201.0 40.3 L197.4 40.5 L190.1 40.1 L185.9 39.5 L182.6 39.2 L181.0 38.5 L183.1 37.6 L180.2 37.6 L179.6 35.5 L181.1 33.7 L183.2 32.9 L188.3 32.4 L186.9 33.7Z M159.3 32.3 L161.7 32.7 L165.2 32.5 L165.8 33.1 L163.9 34.0 L166.9 34.9 L166.6 36.7 L163.3 37.5 L161.4 37.3 L160.0 36.5 L155.0 35.0 L155.0 34.3 L159.1 34.6 L156.9 33.3 L159.3 32.3Z M647.2 33.6 L644.2 33.6 L640.1 33.4 L639.7 33.3 L641.6 32.5 L644.1 32.3 L647.0 33.1 L647.2 33.6Z M173.6 34.5 L171.5 36.0 L169.2 35.9 L167.9 34.1 L168.0 33.1 L169.0 32.3 L171.0 31.7 L175.2 31.8 L179.0 32.3 L176.0 34.1 L173.6 34.5Z M119.1 37.2 L113.8 38.2 L112.8 37.3 L108.1 36.3 L108.8 35.6 L110.4 34.0 L112.1 32.6 L110.2 31.4 L116.9 31.1 L119.8 31.5 L124.9 31.6 L126.8 32.2 L129.0 33.1 L126.5 33.6 L121.6 35.0 L119.1 36.4 L119.1 37.2Z M661.5 29.8 L659.2 30.6 L656.0 30.4 L652.2 29.7 L652.7 29.0 L656.4 29.3 L661.5 29.8Z M172.8 30.0 L171.7 30.8 L168.8 30.7 L166.4 30.1 L167.4 29.2 L170.3 28.7 L172.0 29.4 L172.8 30.0Z M650.2 28.9 L648.6 30.4 L641.2 30.3 L637.9 30.8 L634.0 29.5 L635.0 28.1 L637.7 27.7 L642.9 27.8 L650.2 28.9Z M163.0 26.6 L164.5 27.5 L164.6 28.5 L163.7 30.0 L160.4 30.2 L158.2 29.9 L158.3 28.7 L155.0 28.9 L154.9 27.3 L157.0 27.4 L160.0 26.7 L162.8 26.8 L163.0 26.6Z M143.6 27.6 L144.4 28.3 L146.1 28.0 L148.2 28.1 L148.6 29.0 L147.4 30.0 L140.6 30.3 L135.6 31.2 L132.5 31.2 L132.3 30.6 L136.4 29.7 L127.4 29.9 L124.6 29.6 L127.3 27.6 L129.2 27.0 L134.8 27.7 L138.4 28.9 L141.9 29.1 L139.0 27.1 L140.8 26.4 L142.9 26.6 L143.6 27.6Z M475.1 38.6 L473.9 38.7 L467.4 38.5 L466.8 37.6 L463.2 37.1 L462.9 36.0 L465.0 35.5 L464.9 34.4 L468.9 32.7 L467.0 32.5 L471.8 30.7 L471.3 29.8 L475.7 28.8 L482.3 27.5 L489.0 27.1 L492.4 26.4 L496.3 26.1 L497.7 26.9 L496.4 27.5 L489.3 28.5 L483.2 29.5 L477.0 31.4 L474.0 33.3 L470.8 35.3 L471.2 36.9 L475.1 38.6Z M170.6 25.8 L172.9 26.4 L176.8 26.4 L178.5 27.1 L178.1 27.9 L180.4 28.3 L181.6 28.8 L184.3 28.9 L187.2 29.0 L190.4 28.6 L194.5 28.4 L197.7 28.6 L199.9 29.3 L200.3 30.2 L199.1 30.7 L196.1 31.1 L193.5 30.9 L187.8 31.2 L183.7 31.2 L180.5 31.0 L175.2 30.3 L174.5 29.2 L174.2 28.2 L172.2 27.4 L168.1 27.1 L165.8 26.5 L166.5 25.7 L170.6 25.8Z M127.6 24.7 L127.3 26.2 L125.8 26.9 L123.9 27.0 L120.2 27.9 L117.0 28.2 L114.3 27.8 L117.7 26.3 L121.8 25.0 L124.9 25.0 L127.6 24.7Z M172.3 25.0 L171.4 25.0 L167.7 24.9 L167.1 24.3 L171.2 24.4 L172.6 24.7 L172.3 25.0Z M139.6 24.6 L135.9 25.2 L132.9 24.5 L134.5 23.9 L137.5 23.7 L140.3 24.0 L139.6 24.6Z M409.4 24.3 L405.0 25.1 L401.5 24.6 L402.8 24.1 L401.6 23.5 L405.8 23.1 L406.6 23.8 L409.4 24.3Z M140.7 22.8 L138.2 23.2 L134.9 23.2 L135.0 22.9 L137.0 22.3 L138.1 22.4 L140.7 22.8Z M168.3 23.9 L165.4 24.3 L163.8 23.8 L162.9 23.1 L162.7 22.3 L165.3 22.3 L166.5 22.5 L168.9 23.2 L168.3 23.9Z M159.9 23.3 L160.7 24.2 L157.4 24.0 L154.1 23.3 L149.6 23.2 L151.6 22.6 L149.2 22.2 L149.0 21.4 L152.9 21.7 L158.4 22.4 L159.9 23.3Z M570.2 23.4 L558.9 24.2 L562.5 21.5 L564.2 21.3 L565.7 21.4 L570.7 22.6 L570.2 23.4Z M396.5 20.6 L403.1 22.1 L398.1 22.9 L396.9 24.3 L395.2 24.7 L394.2 26.4 L391.8 26.5 L387.5 25.2 L389.3 24.5 L386.3 24.0 L382.4 22.3 L380.9 20.7 L386.3 20.0 L387.4 20.7 L390.3 20.7 L391.0 20.0 L394.0 19.9 L396.5 20.6Z M410.9 19.2 L414.8 19.9 L411.9 21.0 L406.0 21.2 L400.2 20.9 L399.8 20.3 L396.9 20.3 L394.7 19.4 L400.9 18.8 L403.8 19.3 L405.8 18.7 L410.9 19.2Z M462.3 18.9 L459.6 19.2 L457.8 19.3 L457.5 19.6 L455.2 20.0 L453.0 19.5 L454.1 18.9 L449.7 18.8 L453.6 18.5 L456.6 18.4 L457.0 19.0 L458.2 18.5 L460.1 18.2 L463.0 18.6 L462.3 18.9Z M559.9 22.2 L555.5 22.5 L549.9 21.9 L546.6 21.1 L545.1 19.7 L542.4 19.3 L547.6 17.9 L551.9 17.5 L555.8 18.5 L560.4 20.4 L559.9 22.2Z M186.0 20.7 L188.4 21.3 L185.6 21.9 L181.9 23.4 L178.4 23.6 L174.2 23.3 L172.1 22.5 L172.1 21.8 L173.7 21.2 L170.1 21.3 L167.8 20.6 L166.6 19.7 L168.0 18.8 L169.4 18.2 L171.4 18.0 L170.5 17.6 L175.2 17.5 L177.7 18.6 L181.1 19.0 L184.4 19.4 L186.0 20.7Z M223.0 13.8 L228.3 13.9 L232.6 14.2 L236.3 14.7 L236.2 15.3 L231.3 16.1 L226.5 16.5 L224.7 17.0 L229.0 17.0 L224.3 18.2 L221.1 18.8 L217.6 20.4 L213.5 20.7 L212.2 21.1 L206.2 21.4 L208.9 21.6 L207.6 22.0 L209.2 22.9 L207.3 23.6 L204.2 24.2 L203.3 25.0 L200.5 25.6 L200.8 26.0 L204.2 26.0 L204.2 26.4 L198.9 27.6 L193.7 27.1 L187.8 27.4 L184.8 27.2 L181.0 27.1 L180.8 26.1 L184.5 25.6 L183.5 24.2 L184.7 24.1 L190.0 24.9 L187.3 23.6 L184.1 23.3 L185.7 22.5 L189.2 22.0 L189.8 21.3 L187.0 20.5 L186.1 19.5 L191.6 19.6 L193.2 19.8 L196.3 19.1 L191.8 18.8 L184.8 19.0 L181.3 18.3 L179.6 17.5 L177.3 16.9 L176.8 16.2 L179.8 15.8 L182.1 15.8 L186.1 15.4 L189.0 14.7 L191.5 14.8 L193.6 15.4 L195.2 14.3 L197.8 14.0 L201.4 13.7 L207.5 13.7 L208.6 13.9 L214.3 13.5 L218.7 13.7 L223.0 13.8Z M305.8 13.0 L318.3 14.5 L314.6 15.3 L307.0 15.4 L296.2 15.6 L297.2 16.0 L304.3 15.7 L310.3 16.4 L314.2 15.8 L315.9 16.5 L313.7 17.7 L318.8 17.0 L328.5 16.2 L334.5 16.6 L335.6 17.4 L327.4 18.8 L326.3 19.3 L319.9 19.6 L324.5 19.7 L322.2 21.2 L320.6 22.5 L320.7 24.7 L323.1 26.0 L319.9 26.1 L316.6 26.7 L320.3 27.8 L320.8 29.5 L318.7 29.7 L321.3 31.4 L316.8 31.6 L319.1 32.4 L318.5 33.1 L315.7 33.4 L312.9 33.4 L315.4 34.7 L315.4 35.6 L311.4 34.8 L310.4 35.3 L313.1 35.8 L315.7 37.1 L316.5 38.7 L312.9 39.1 L311.4 38.3 L308.9 37.1 L309.6 38.5 L307.3 39.5 L312.5 39.6 L315.3 39.7 L309.9 41.5 L304.5 43.1 L298.7 43.8 L296.4 43.8 L294.4 44.5 L291.6 46.6 L287.3 48.0 L285.9 48.1 L283.3 48.6 L280.4 49.1 L278.7 50.3 L278.6 51.7 L277.6 53.0 L274.4 54.6 L275.2 56.2 L274.3 57.9 L273.2 59.8 L270.4 59.9 L267.5 58.3 L263.5 58.3 L261.5 57.2 L260.2 55.2 L256.7 52.7 L255.7 51.4 L255.4 49.6 L252.7 47.8 L253.4 46.3 L252.1 45.6 L254.0 43.3 L257.0 42.5 L257.8 41.7 L258.3 40.1 L256.0 40.9 L254.9 41.1 L253.1 41.4 L250.6 40.8 L250.5 39.4 L251.3 38.4 L253.1 38.3 L257.2 38.9 L253.8 37.6 L252.0 36.9 L250.0 37.2 L248.3 36.7 L250.6 34.8 L249.3 34.1 L247.8 32.7 L245.3 30.6 L242.8 29.8 L242.8 29.0 L237.5 27.8 L233.2 27.6 L227.9 27.7 L223.0 27.9 L220.7 27.2 L217.2 26.0 L222.4 25.4 L226.5 25.2 L217.9 24.7 L213.4 23.9 L213.7 23.1 L221.3 22.2 L228.6 21.2 L229.4 20.5 L224.0 19.8 L225.7 19.0 L232.6 17.6 L235.5 17.4 L234.7 16.5 L239.4 15.9 L245.6 15.6 L251.7 15.6 L253.9 16.2 L259.2 15.1 L264.0 15.9 L266.8 16.0 L271.0 16.7 L266.2 15.6 L266.5 14.7 L273.2 13.5 L280.2 13.6 L282.8 12.9 L289.8 12.7 L305.8 13.0Z" fill="#1e293b" stroke="#334155" stroke-width="0.3" stroke-linejoin="round"/>
</svg>